<svg id="Layer_1" data-name="Layer 1" xmlns="http://www.w3.org/2000/svg" viewBox="0 0 114 116"><defs><style>.cls-1{fill:#f0c;}</style></defs><path class="cls-1" d="M56,35.09l17-17,17-5.66q8.5,8.49,17,17l-5.67,11.33V52.09L73,74.76v17H67.33V63.43H44.67l-17,11.33v17H22v-34Q16.33,46.44,10.67,35.09L5,29.43h5.67L22,52.09Z"/><path class="cls-1" d="M90,69.09l11.33,22.67H95.67l-11.34-17Z"/><path class="cls-1" d="M39,74.76l5.67,17H39L33.33,80.43Z"/><path class="cls-1" d="M60.11,99.17a4.18,4.18,0,0,1,1.09-.88A3,3,0,0,1,62.63,98a2.58,2.58,0,0,1,2.09,1,3.82,3.82,0,0,1,.59,1.25,6.28,6.28,0,0,1,.21,1.7,5.63,5.63,0,0,1-.23,1.63,4,4,0,0,1-.68,1.29,2.94,2.94,0,0,1-1.06.86,3,3,0,0,1-1.39.31,2.88,2.88,0,0,1-1.12-.2,2.76,2.76,0,0,1-.83-.56v3.2a3.06,3.06,0,0,1-1.36.12,2.59,2.59,0,0,1-.53-.12V98.1h1.16a.47.47,0,0,1,.48.35Zm.1,4.73a1.8,1.8,0,0,0,.7.55,2.18,2.18,0,0,0,.82.16,1.93,1.93,0,0,0,.77-.16,1.59,1.59,0,0,0,.58-.49,2.45,2.45,0,0,0,.37-.83,4.52,4.52,0,0,0,.13-1.18,5.5,5.5,0,0,0-.11-1.16,2.29,2.29,0,0,0-.32-.77,1.23,1.23,0,0,0-.5-.44,1.57,1.57,0,0,0-.67-.13,1.91,1.91,0,0,0-1,.24,3,3,0,0,0-.78.7Z"/><path class="cls-1" d="M28.77,105.94H27.19a.68.68,0,0,1-.44-.14.9.9,0,0,1-.25-.33l-.82-2.25H21.11l-.83,2.25a.69.69,0,0,1-.23.32.65.65,0,0,1-.44.15H18l4.34-11h2.09Zm-3.62-4.17-1.34-3.66c-.07-.17-.14-.36-.21-.58s-.14-.47-.21-.73c-.07.26-.14.5-.21.73s-.14.42-.2.59l-1.34,3.65Z"/><path class="cls-1" d="M32.32,105.94H30.27v-11h2.05Z"/><path class="cls-1" d="M48.13,105.94H46.54a.67.67,0,0,1-.43-.14.81.81,0,0,1-.25-.33L45,103.22H40.47l-.83,2.25a.69.69,0,0,1-.23.32.65.65,0,0,1-.44.15h-1.6l4.34-11H43.8Zm-3.62-4.17-1.34-3.66c-.07-.17-.14-.36-.21-.58s-.14-.47-.21-.73c-.07.26-.14.5-.21.73s-.14.42-.2.59L41,101.77Z"/><path class="cls-1" d="M51.1,99.18a4.18,4.18,0,0,1,1.09-.88A2.93,2.93,0,0,1,53.62,98a2.64,2.64,0,0,1,1.17.26,2.72,2.72,0,0,1,.92.78,3.82,3.82,0,0,1,.59,1.25,6.23,6.23,0,0,1,.21,1.7,5.31,5.31,0,0,1-.24,1.63,3.86,3.86,0,0,1-.67,1.29,3,3,0,0,1-2.45,1.17,2.88,2.88,0,0,1-1.12-.2,2.76,2.76,0,0,1-.83-.56v3.2a3.09,3.09,0,0,1-1.37.12,3.33,3.33,0,0,1-.52-.12V98.11h1.15a.46.46,0,0,1,.48.35Zm.1,4.73a1.85,1.85,0,0,0,.69.55,2.22,2.22,0,0,0,.82.16,1.89,1.89,0,0,0,.77-.16,1.54,1.54,0,0,0,.59-.49,2.54,2.54,0,0,0,.37-.83,5.06,5.06,0,0,0,.13-1.18,4.87,4.87,0,0,0-.12-1.16,2,2,0,0,0-.31-.77,1.3,1.3,0,0,0-.5-.44,1.6,1.6,0,0,0-.67-.14,2,2,0,0,0-1,.25,3.12,3.12,0,0,0-.77.7Z"/><path class="cls-1" d="M72.11,99.64a.44.44,0,0,1-.16.17.46.46,0,0,1-.21,0,.71.71,0,0,1-.3-.08l-.36-.17a3.61,3.61,0,0,0-.47-.17,2.22,2.22,0,0,0-.62-.08,1.41,1.41,0,0,0-.87.24.74.74,0,0,0-.32.62.58.58,0,0,0,.16.42,1.48,1.48,0,0,0,.44.3,3.1,3.1,0,0,0,.61.23l.7.23a6,6,0,0,1,.7.28,2.27,2.27,0,0,1,.61.39,1.94,1.94,0,0,1,.44.58,1.8,1.8,0,0,1,.16.81,2.75,2.75,0,0,1-.2,1,2.32,2.32,0,0,1-.6.82,2.8,2.8,0,0,1-1,.54,4.26,4.26,0,0,1-1.35.2,4,4,0,0,1-.78-.08,3.5,3.5,0,0,1-.74-.2,4,4,0,0,1-.66-.3,3.81,3.81,0,0,1-.53-.38l.43-.72a.76.76,0,0,1,.2-.2.65.65,0,0,1,.29-.07.64.64,0,0,1,.33.1l.37.22a3.79,3.79,0,0,0,.48.21,2.06,2.06,0,0,0,.71.1,1.91,1.91,0,0,0,.57-.08,1.37,1.37,0,0,0,.4-.21.81.81,0,0,0,.3-.66.69.69,0,0,0-.16-.45,1.48,1.48,0,0,0-.44-.3,4,4,0,0,0-.62-.24c-.23-.06-.46-.14-.71-.22a6.07,6.07,0,0,1-.7-.29,2,2,0,0,1-.62-.41,1.88,1.88,0,0,1-.44-.62,2.13,2.13,0,0,1-.16-.88,2.23,2.23,0,0,1,.19-.92,2.18,2.18,0,0,1,.56-.76,2.91,2.91,0,0,1,.92-.52A4.15,4.15,0,0,1,70,98a3.85,3.85,0,0,1,1.47.27,3.45,3.45,0,0,1,1.11.7Z"/><path class="cls-1" d="M77,106.06a2,2,0,0,1-1.57-.58,2.22,2.22,0,0,1-.55-1.59V99.52h-.8a.33.33,0,0,1-.25-.1.34.34,0,0,1-.11-.29v-.75L75,98.17,75.37,96a.49.49,0,0,1,.15-.24.46.46,0,0,1,.27-.08h1v2.46h2.09a.6.6,0,0,1,.46.27.65.65,0,0,1,0,.53,1,1,0,0,1-.46.54H76.77v4.24a.81.81,0,0,0,.18.57.61.61,0,0,0,.49.21.81.81,0,0,0,.29,0l.21-.09.15-.09a.43.43,0,0,1,.14,0,.29.29,0,0,1,.14,0,.5.5,0,0,1,.11.13l.57.91a2.75,2.75,0,0,1-1,.52A3.38,3.38,0,0,1,77,106.06Z"/><path class="cls-1" d="M83.81,98a4.28,4.28,0,0,1,1.59.28,3.64,3.64,0,0,1,1.22.8,3.78,3.78,0,0,1,.78,1.27,4.88,4.88,0,0,1,.27,1.67,4.93,4.93,0,0,1-.27,1.68,3.88,3.88,0,0,1-.78,1.27,3.52,3.52,0,0,1-1.22.81,4.65,4.65,0,0,1-3.18,0A3.34,3.34,0,0,1,81,105a3.74,3.74,0,0,1-.79-1.27,4.93,4.93,0,0,1-.28-1.68,4.87,4.87,0,0,1,.28-1.67A3.65,3.65,0,0,1,81,99.07a3.45,3.45,0,0,1,1.22-.8A4.28,4.28,0,0,1,83.81,98Zm0,6.61a1.68,1.68,0,0,0,1.45-.65,3.33,3.33,0,0,0,.47-1.93,3.37,3.37,0,0,0-.47-1.93,1.92,1.92,0,0,0-2.91,0,4.08,4.08,0,0,0,0,3.84A1.67,1.67,0,0,0,83.81,104.6Z"/><path class="cls-1" d="M92.11,98.37a1.75,1.75,0,0,1,.39-.24,1.91,1.91,0,0,1,.8-.16,1.52,1.52,0,0,1,.87.23l-.12,1.41a.46.46,0,0,1-.11.2.32.32,0,0,1-.2.06l-.34,0a2.18,2.18,0,0,0-.44,0,1.59,1.59,0,0,0-.55.09,1.5,1.5,0,0,0-.44.26,1.74,1.74,0,0,0-.34.42,3.25,3.25,0,0,0-.28.56v4.82H89.46V98.11h1.11a.49.49,0,0,1,.4.11s.1.11.16.36c0,.06,0,.16,0,.35s0,.23,0,.24.14-.07.24-.18A5.46,5.46,0,0,1,92.11,98.37Z"/><path class="cls-1" d="M96.73,102.26a3.75,3.75,0,0,0,.21,1,2.31,2.31,0,0,0,.45.73,1.66,1.66,0,0,0,.65.42,2.23,2.23,0,0,0,.83.14,2.62,2.62,0,0,0,.79-.1,3.17,3.17,0,0,0,.58-.24l.44-.24a.7.7,0,0,1,.36-.1.4.4,0,0,1,.35.17l.54.69a3.1,3.1,0,0,1-.7.61,3.81,3.81,0,0,1-.81.4,4.49,4.49,0,0,1-.86.21,6.44,6.44,0,0,1-.86.06,4.13,4.13,0,0,1-1.51-.27A3.36,3.36,0,0,1,96,105a3.79,3.79,0,0,1-.82-1.31,5,5,0,0,1-.3-1.81,4.39,4.39,0,0,1,.26-1.51,3.67,3.67,0,0,1,.75-1.23A3.33,3.33,0,0,1,97,98.3a4.08,4.08,0,0,1,2.94-.07,2.82,2.82,0,0,1,1.07.69,3.16,3.16,0,0,1,.71,1.11,4.16,4.16,0,0,1,.25,1.51,1.23,1.23,0,0,1-.09.57.38.38,0,0,1-.35.15Zm3.59-1.14a2.26,2.26,0,0,0-.1-.69,1.61,1.61,0,0,0-.31-.56,1.46,1.46,0,0,0-.52-.39,1.88,1.88,0,0,0-.74-.14,1.73,1.73,0,0,0-1.28.46,2.26,2.26,0,0,0-.6,1.32Z"/></svg>