<?xml version="1.0" encoding="utf-8"?>
<!-- Generator: Adobe Illustrator 22.0.1, SVG Export Plug-In . SVG Version: 6.00 Build 0)  -->
<svg version="1.1" id="Layer_1" xmlns="http://www.w3.org/2000/svg" xmlns:xlink="http://www.w3.org/1999/xlink" x="0px" y="0px"
	 viewBox="0 0 829.2 268" style="enable-background:new 0 0 829.2 268;" xml:space="preserve">
<style type="text/css">
	.st0{fill:#FDCB26;}
	.st1{enable-background:new    ;}
</style>
<g id="line" transform="translate(-44.768921,-31.643301)">
	<path id="path4250_1_" class="st0" d="M758.8,258.8l-479.3,1.1l-1.6,13l479.3-1.1L758.8,258.8z"/>
</g>
<g id="icon" transform="translate(-44.768921,-31.643301)">
	<g id="g4254_1_" transform="matrix(0.48937269,0.01774449,-0.01774449,0.48937269,83.286522,-587.98464)">
		<path id="path4256_1_" class="st0" d="M1486.4,1333.8c2.5-4.5,4.7-9.3,7-14c6.2-12.5,13.5-24.3,22.4-34.3
			c4.6-5.2,9.7-10.1,15.5-13.2c8.7-4.7,18.9-5.6,28-1.9c3.5,1.4,6.7,3.4,10,5.3c3.3,1.8,6.8,3.5,10.4,4c4.4,0.7,8.9-0.3,13-2.2
			c4.1-1.9,7.9-4.6,11.5-7.7c12.4-10.3,22.9-23.8,30.7-39.1c1.2-2.4,2.4-4.9,3.9-7.1c0.4-0.6,0.8-1.2,1.4-1.5
			c0.3-0.2,0.6-0.3,0.9-0.3s0.6,0.1,0.9,0.3c0.3,0.2,0.4,0.5,0.6,0.8c0.1,0.3,0.2,0.7,0.2,1c0,0.7-0.2,1.4-0.4,2
			c-1.7,5.6-4.2,10.8-6.8,15.9c-3.9,7.6-8.1,15-12.6,22.1c-4.8,7.5-9.9,14.7-15.7,21.1c-5.5,6-11.6,11.3-18.6,14.4
			c-5.3,2.4-11,3.5-16.6,2.4c-5.1-1-9.8-3.7-14.5-6.3c-4.7-2.6-9.5-5.1-14.7-5.5c-7-0.6-13.9,2.6-20,6.9
			c-11.1,7.8-20.3,19.2-27.3,32.1c-1.8,3.3-3.5,6.7-6,9.4c-0.5,0.5-1,1-1.7,1.3c-0.3,0.1-0.7,0.2-1,0.2s-0.7-0.1-1-0.3
			c-0.4-0.3-0.7-0.8-0.8-1.3c-0.1-0.5-0.1-1.1,0-1.6C1485.4,1335.6,1485.9,1334.7,1486.4,1333.8L1486.4,1333.8z"/>
		<path id="path4258_1_" class="st0" d="M1482.5,1376.2c2.5-4.5,4.7-9.3,7-14c6.2-12.5,13.5-24.3,22.4-34.3
			c4.6-5.2,9.7-10.1,15.5-13.2c8.7-4.7,18.9-5.6,28-1.9c3.5,1.4,6.7,3.4,10,5.3c3.3,1.8,6.8,3.5,10.4,4c4.4,0.7,8.9-0.3,13-2.2
			s7.9-4.6,11.5-7.7c12.4-10.3,22.9-23.8,30.7-39.1c1.2-2.4,2.4-4.9,3.9-7.1c0.4-0.6,0.8-1.2,1.4-1.5c0.3-0.2,0.6-0.3,0.9-0.3
			s0.6,0.1,0.9,0.3c0.3,0.2,0.4,0.5,0.6,0.8c0.1,0.3,0.2,0.7,0.2,1c0,0.7-0.2,1.4-0.4,2c-1.7,5.6-4.2,10.8-6.8,15.9
			c-3.9,7.6-8.1,15-12.6,22.1c-4.8,7.5-9.9,14.7-15.7,21.1c-5.5,6-11.6,11.3-18.6,14.4c-5.3,2.4-11,3.5-16.6,2.4
			c-5.1-1-9.8-3.7-14.5-6.3c-4.7-2.6-9.5-5.1-14.7-5.5c-7-0.6-13.9,2.6-20,6.9c-11.1,7.8-20.3,19.2-27.3,32.1
			c-1.8,3.3-3.5,6.7-6,9.4c-0.5,0.5-1,1-1.7,1.3c-0.3,0.1-0.7,0.2-1,0.2s-0.7-0.1-1-0.3c-0.4-0.3-0.7-0.8-0.8-1.3
			c-0.1-0.5-0.1-1.1,0-1.6C1481.5,1378,1482,1377.1,1482.5,1376.2L1482.5,1376.2z"/>
		<path id="path4260_1_" class="st0" d="M1479.5,1418.2c2.5-4.5,4.7-9.3,7-14c6.2-12.5,13.5-24.3,22.4-34.3
			c4.6-5.2,9.7-10.1,15.5-13.2c8.7-4.7,18.9-5.6,28-1.9c3.5,1.4,6.7,3.4,10,5.3c3.3,1.8,6.8,3.5,10.4,4c4.4,0.7,8.9-0.3,13-2.2
			s7.9-4.6,11.5-7.7c12.4-10.3,22.9-23.8,30.7-39.1c1.2-2.4,2.4-4.9,3.9-7.1c0.4-0.6,0.8-1.2,1.4-1.5c0.3-0.2,0.6-0.3,0.9-0.3
			s0.6,0.1,0.9,0.3c0.3,0.2,0.4,0.5,0.6,0.8c0.1,0.3,0.2,0.7,0.2,1c0,0.7-0.2,1.4-0.4,2c-1.7,5.6-4.2,10.8-6.8,15.9
			c-3.9,7.6-8.1,15-12.6,22.1c-4.8,7.5-9.9,14.7-15.7,21.1c-5.5,6-11.6,11.3-18.6,14.4c-5.3,2.4-11,3.5-16.6,2.4
			c-5.1-1-9.8-3.7-14.5-6.3c-4.7-2.6-9.5-5.1-14.7-5.5c-7-0.6-13.9,2.6-20,6.9c-11.1,7.8-20.3,19.2-27.3,32.1
			c-1.8,3.3-3.5,6.7-6,9.4c-0.5,0.5-1,1.1-1.7,1.3c-0.3,0.1-0.7,0.2-1,0.2s-0.7-0.1-1-0.3c-0.4-0.3-0.7-0.8-0.8-1.3
			c-0.1-0.5-0.1-1.1,0-1.6C1478.5,1420,1479,1419.1,1479.5,1418.2L1479.5,1418.2z"/>
	</g>
</g>
<circle id="dot" class="st0" cx="29.3" cy="79.4" r="11.6"/>
<g id="name" transform="translate(10.575909,-741.04419)">
	<g class="st1">
		<polygon points="-2.7,951.2 10.4,951.2 22.1,855.9 9,855.9 		"/>
		<path d="M53.9,855.9h11.2l-1.9,24.5c4.6-7.9,10.6-14.4,18-19.3c7.4-4.9,15.8-7.4,25.4-7.4c9.4,0,16.5,2.6,21.3,7.9
			c4.8,5.2,6.9,12.1,6.1,20.7l-8.3,68.8h-13.1l7.9-64.3c0.5-5.4-0.8-10-3.9-13.8c-3.1-3.8-8.1-5.9-15.1-6.2c-5.1,0-9.9,0.8-14.4,2.5
			s-8.6,4-12.1,7c-3.6,3-6.5,6.6-8.8,10.7c-2.3,4.1-3.8,8.7-4.4,13.6l-6.2,50.5H42.3L53.9,855.9z"/>
		<path d="M155.9,868.9L155.9,868.9L155.9,868.9z"/>
		<path d="M239,951.2h-13.1l22.4-182.5h13.1L239,951.2z"/>
		<path d="M351.7,939.8c-5.1,4.1-10.9,7.4-17.4,9.8c-6.5,2.4-13.1,3.6-19.8,3.6c-6.5,0-12.5-1.2-17.9-3.5s-10.1-5.5-14.1-9.5
			s-7.1-8.8-9.3-14.2c-2.2-5.4-3.3-11.2-3.3-17.4c0-7.5,1.5-14.5,4.6-21.2s7.3-12.5,12.5-17.5s11.2-9,18-11.9
			c6.7-2.9,13.8-4.4,21.1-4.4c10.5,0,19.2,3.1,26.2,9.4c7,6.3,11.7,14.4,14.1,24.4c-5.6,2.1-11.8,4.4-18.7,7
			c-6.9,2.6-14,5.3-21.3,8.1s-14.5,5.6-21.7,8.3c-7.1,2.8-13.8,5.4-20,7.7c2.1,6.5,5.8,11.8,11.3,15.7c5.5,4,12,6,19.7,6
			c5.1,0,10-0.9,14.8-2.6c4.8-1.7,9-4.1,12.6-7.1L351.7,939.8z M350.5,884c-2.1-5.4-5.4-9.6-9.9-12.7c-4.5-3.1-9.8-4.6-15.8-4.6
			c-5.6,0-10.8,1.1-15.8,3.2c-5,2.1-9.4,5.1-13.2,8.8c-3.8,3.7-6.8,8-9.1,12.7c-2.2,4.8-3.3,9.8-3.3,15v3.3
			c5.2-2.1,10.8-4.2,16.6-6.4c5.8-2.2,11.6-4.5,17.5-6.8s11.7-4.5,17.4-6.7C340.5,887.7,345.8,885.8,350.5,884z"/>
		<path d="M448.7,932.4l6.9,9.8c-4.8,3.5-9.9,6.2-15.5,8.1c-5.6,1.9-11.4,2.9-17.4,2.9c-6.5,0-12.5-1.2-17.9-3.5s-10.1-5.5-14.1-9.5
			s-7.1-8.8-9.3-14.2c-2.2-5.4-3.3-11.2-3.3-17.4c0-7.5,1.5-14.5,4.6-21.2s7.3-12.5,12.5-17.5s11.3-8.9,18.1-11.8
			c6.8-2.9,14-4.3,21.4-4.3c6,0,11.6,1,16.8,2.9c5.2,1.9,9.7,4.6,13.7,8.1c-1.6,1.7-3.2,3.4-4.8,4.9c-1.6,1.5-3.2,3.1-4.8,4.9
			c-6-5.2-13.5-7.9-22.4-7.9c-5.7,0-11.2,1.1-16.3,3.2c-5.2,2.1-9.6,5-13.5,8.7c-3.8,3.7-6.8,7.9-9.1,12.9c-2.2,4.9-3.3,10.2-3.3,16
			c0,4.6,0.8,8.9,2.4,13c1.6,4,3.8,7.5,6.8,10.5c2.9,2.9,6.4,5.2,10.5,6.9c4,1.7,8.5,2.5,13.5,2.5c4.6,0,8.9-0.7,13-2
			C441.4,936.9,445.2,934.9,448.7,932.4z"/>
		<path d="M501.8,814.3h13.1l-5.2,42.6H538l-1.4,11.9h-28.4l-10,82.4h-13.1l10-82.4H476l1.4-11.9h19.1L501.8,814.3z"/>
		<path d="M604.7,870.2c-4.8,0-9.4,0.8-13.9,2.3s-8.6,3.6-12.3,6.3s-6.7,6-9.2,9.9s-4,8.2-4.6,13l-6.2,49.5h-13.1l11.7-95.3h11.1
			l-1.9,24.5c2.4-4.1,5.3-7.8,8.8-11.1s7.2-6,11.1-8.3c3.9-2.3,7.8-4.1,11.8-5.4c4-1.3,7.7-1.9,11.2-1.9L604.7,870.2z"/>
		<path d="M610.6,909.1c0-7.5,1.5-14.6,4.6-21.3s7.3-12.6,12.5-17.6s11.2-9,18-11.9c6.7-2.9,13.8-4.4,21.1-4.4
			c4.8,0,9.1,0.6,13.1,1.9c4,1.3,7.5,3,10.5,5.1s5.5,4.5,7.4,7.1s3.3,5.2,4,7.7l3.3-19.8h12.1l-11.7,95.3h-13.1l1.2-9.8
			c0.3-1.7,0.6-3.4,0.7-5c0.2-1.6,0.4-3.1,0.7-4.5c-1.4,2.7-3.4,5.3-6,7.7c-2.5,2.5-5.6,4.7-9.1,6.8s-7.4,3.7-11.7,4.9
			s-8.9,1.8-13.8,1.8c-6.7,0-12.7-1.2-18.1-3.5c-5.4-2.3-10-5.4-13.8-9.4s-6.8-8.7-8.9-14.1C611.7,920.8,610.6,915.1,610.6,909.1z
			 M623.8,907.2c0,4.8,0.8,9.1,2.4,13.1c1.6,4,3.8,7.5,6.8,10.5c2.9,3,6.4,5.4,10.5,7c4,1.7,8.5,2.5,13.5,2.5
			c5.7,0,11.1-1.1,16.2-3.2c5.1-2.1,9.5-5,13.3-8.7s6.8-8,9.1-13c2.2-5,3.3-10.3,3.3-15.8c0-4.6-0.8-8.9-2.4-13
			c-1.6-4-3.8-7.5-6.7-10.5c-2.9-2.9-6.3-5.2-10.4-6.9c-4-1.7-8.5-2.5-13.5-2.5c-5.7,0-11.1,1-16.2,3.1c-5.1,2.1-9.5,4.9-13.3,8.6
			c-3.8,3.7-6.9,7.9-9.2,12.9C624.9,896.1,623.8,901.4,623.8,907.2z"/>
	</g>
	<path d="M190.4,827.9l-3.3,28.1h31.2l-1.7,12.9h-31.2l-8.2,67.7h0.1l-7.8,63.9h-13.1l6-49.4h-0.1l10-82.2h-16.4l1.7-12.8H174
		l3.3-28.1c2.4-19.4,8.8-33.9,19.3-43.7s23.5-15,39.1-15.6l-1.7,12.6c-11.8,0.3-21.5,4.6-29.3,12.7
		C196.9,802.2,192.2,813.5,190.4,827.9z"/>
</g>
</svg>
