<?xml version="1.0" encoding="utf-8"?>
<!-- Generator: Adobe Illustrator 24.2.0, SVG Export Plug-In . SVG Version: 6.00 Build 0)  -->
<svg version="1.1"
	 id="svg2" xmlns:cc="http://creativecommons.org/ns#" xmlns:dc="http://purl.org/dc/elements/1.1/" xmlns:rdf="http://www.w3.org/1999/02/22-rdf-syntax-ns#" xmlns:svg="http://www.w3.org/2000/svg"
	 xmlns="http://www.w3.org/2000/svg" xmlns:xlink="http://www.w3.org/1999/xlink" x="0px" y="0px" viewBox="0 0 620 289.334"
	 enable-background="new 0 0 620 289.334" xml:space="preserve">
<g id="g10" transform="matrix(1.3333333,0,0,-1.3333333,0,289.33333)">
	<g id="g12" transform="scale(0.1)">
		<path id="path14" fill="#6699C7" d="M2832.423,2064.534c11.015,5.347,17.849,14.648,20.507,28.008
			c2.659,13.007,0.513,26.836-6.481,41.476c-7.661,14.342-17.659,24.5-30,30.513c-12.656,6.328-24.69,7.148-36.021,2.497
			c-10.979-5.662-17.805-15-20.507-28.008c-2.652-13-0.308-26.828,7.031-41.477c7.66-14.341,17.659-24.69,30-31.026
			C2809.264,2060.198,2821.092,2059.531,2832.423,2064.534"/>
		<path id="path16" fill="#6699C7" d="M2563.441,1732.542c0,3.669-1.677,5.976-5.002,6.987c-30.352,5.354-59.846,9.338-88.521,11.99
			c-27.649,2.351-54.8,3.524-81.475,3.524c-83.672,0-161.993-12.188-235.001-36.519c-73.323-24.346-140.16-60-200.512-107
			l-35.98-458.474h2.501c0,0.315,0,0.469,0,0.469c25.979,114.332,68.829,213.67,128.477,298c60,84.031,133.364,149.693,220.001,197
			c86.682,47.695,183.157,73.675,289.49,78.003C2561.089,1726.88,2563.089,1728.872,2563.441,1732.542"/>
		<path id="path18" fill="#6699C7" d="M2997.423,1471.521c1.37-1.318,2.029-3.003,2.029-5.003h0.469l-83.98,552.005
			c-1.992,11.36-7.354,19.841-16.018,25.496c-8.321,5.669-18.164,7.193-29.495,4.505l-256.479-67.002
			c-11.016-2.651-16.326-5.003-16.018-6.987c0.352-1.992,6.167-3.01,17.497-3.01h122.505c11.675-0.315,21.679-4.336,30-11.99
			c8.665-7.654,13.829-17.153,15.506-28.513l36.994-315.981C2881.092,1580.703,2940.118,1532.854,2997.423,1471.521"/>
		<path id="path20" fill="#004A8F" d="M1793.442,1928.054c11.678,3.318,21.01,9.8,28.008,19.49
			c7.342,9.646,11.832,21.328,13.469,34.995c1.681,13.982,0.201,28.484-4.49,43.484c-4.999,15-12.338,27.847-21.987,38.511
			s-20.35,18.318-31.992,23.005c-12.001,4.651-23.83,5.662-35.508,3.01c-11.682-3.361-21.02-9.85-28.012-19.526
			c-7.339-10.005-11.839-21.841-13.48-35.471c-1.681-13.674-0.19-28.007,4.501-43.007c4.999-15,12.341-27.854,21.991-38.526
			c9.65-10.657,20.35-18.464,31.988-23.467C1769.92,1925.864,1781.76,1925.044,1793.442,1928.054"/>
		<path id="path22" fill="#004A8F" d="M2917.933,1471.521c-57.664,61.333-116.843,109.183-177.502,143.519
			c-76.992,43.674-155.822,65.515-236.477,65.515c-37.661-0.351-72.862-4.694-105.513-13.015
			c-32.351-8.005-61.677-18.157-88.008-30.505c-25.982-11.99-48.482-24.185-67.504-36.482
			c-18.669-12.034-33.01-22.192-43.007-30.512c-10.313-8.357-15.659-12.847-15.97-13.521c-2.351-2.651-2.659-5.5-1.022-8.467
			c2.34-2.702,5.16-3.361,8.522-2.029c75,38.357,148.82,57.495,221.477,57.495c38.672-0.314,74.18-4.995,106.524-13.989
			c32.307-9.331,61.135-20.662,86.491-33.977c25.349-13.674,46.831-27.348,64.49-41.023c17.659-13.316,31.165-24.646,40.51-33.977
			c9.331-9.338,14.179-14.341,14.487-15c1.019-1.37,1.333-1.838,1.019-1.531c1.64-0.307,8.005-0.659,18.984-0.967
			c11.016-0.351,24.178-0.512,39.485-0.512l73.015-1.524c15.659-0.314,28.667-0.469,39.017-0.469c10.319,0,15.673,0,15.981,0
			c0-0.351,0-0.351,0,0c3.01,0,5.002,1.128,6.021,3.472c0.307,1.018,0.498,1.839,0.498,2.497
			C2919.449,1468.203,2918.951,1469.88,2917.933,1471.521"/>
		<path id="path24" fill="#004A8F" d="M1902.931,1743.051c1.681,15.659,7.657,30.821,18.01,45.469
			c9.998,15,21.987,26.009,36.01,33.003l190.979,93.01c13.671,6.68,19.999,11.675,19.021,15c-1.011,3.01-9.02,3.67-24.02,1.984
			l-384.492-47.497c-15.348-2.344-28.516-9.14-39.488-20.5c-11.331-11.638-17.86-25.159-19.501-40.466l-57.499-673.015h214.501
			l0.498,3.479l35.98,458.006L1902.931,1743.051"/>
		<path id="path26" fill="#004B91" d="M0.04,631.052v321.716h52.339V631.052H0.04z M123.479,631.052v208.286h44.843v-34.065
			c9.448,14.378,20.658,24.851,33.589,31.406c12.89,6.643,28.601,9.997,47.04,9.997c15.498,0,28.747-2.497,39.679-7.5
			c10.943-4.914,19.46-12.143,25.631-21.716c3.629-5.742,6.251-12.458,7.811-20.156c1.64-7.609,2.497-20.896,2.497-39.844V631.052
			h-48.12v107.036c0,27.378-3.358,45.542-10.001,54.536c-6.676,9.052-18.52,13.586-35.467,13.586
			c-11.181,0-21.101-2.109-29.85-6.247c-8.753-4.065-15.579-9.844-20.471-17.344c-3.549-4.922-6.05-11.33-7.5-19.219
			c-1.359-7.807-2.029-20.281-2.029-37.346v-95.003H123.479z"/>
		<path id="path28" fill="#004B91" d="M394.61,631.052v166.568h-36.412v41.719h36.412v55.781c0,27.693,5.698,48.12,17.19,61.253
			c11.558,13.198,29.41,19.841,53.591,19.841c5.076,0,10.346-0.395,15.781-1.091c5.387-0.739,10.938-1.883,16.556-3.443v-43.125
			c-3.857,2.182-7.727,3.787-11.558,4.841c-3.871,1.135-7.771,1.729-11.723,1.729c-11.481,0-19.677-3.567-24.68-10.635
			c-4.999-6.987-7.5-18.83-7.5-35.471v-49.68h50.153v-41.719h-50.153V631.052H394.61z"/>
		<path id="path30" fill="#004B91" d="M528.201,631.059h47.659v340.62h-47.659V631.059z"/>
		<path id="path32" fill="#004B91" d="M689.879,839.338V721.989c0-20.229,4.142-34.76,12.499-43.594
			c8.441-8.745,22.031-13.125,40.781-13.125s32.27,4.38,40.631,13.125c8.32,8.833,12.499,23.365,12.499,43.594v117.349h47.659
			V736.374c0-39.924-8.05-68.877-24.068-86.888c-15.93-18.039-41.4-27.026-76.399-27.026c-35.552,0-61.333,8.914-77.351,26.719
			c-15.93,17.893-23.899,46.948-23.899,87.195v102.964H689.879z"/>
		<path id="path34" fill="#004B91" d="M1108.979,728.237H942.422c1.127-19.489,6.917-34.688,17.347-45.615
			c10.39-10.943,24.25-16.414,41.561-16.414c15.308,0,28.049,3.201,38.28,9.69c10.31,6.445,19.259,16.875,26.87,31.253l40.319-22.5
			c-11.799-20.94-26.33-36.563-43.6-46.883c-17.3-10.188-37.577-15.307-60.78-15.307c-33.439,0-60.077,10.159-79.841,30.469
			c-19.688,20.391-29.528,47.586-29.528,81.563c0,32.703,10.188,59.568,30.623,80.633c20.386,21.006,46.636,31.553,78.746,31.553
			c33.523,0,59.692-9.646,78.442-28.909c18.75-19.175,28.118-46.047,28.118-80.618V728.237z M1059.449,760.273
			c-1.868,14.891-7.61,26.25-17.179,34.065c-9.5,7.896-22.5,11.872-39.071,11.872c-15.62,0-28.239-3.83-37.807-11.411
			c-9.493-7.609-16.092-19.138-19.842-34.526H1059.449z"/>
		<path id="path36" fill="#004B91" d="M1158.831,631.052v208.286h44.839v-34.065c9.452,14.378,20.668,24.851,33.599,31.406
			c12.891,6.643,28.591,9.997,47.029,9.997c15.502,0,28.751-2.497,39.683-7.5c10.939-4.914,19.46-12.143,25.627-21.716
			c3.632-5.742,6.251-12.458,7.811-20.156c1.64-7.609,2.501-20.896,2.501-39.844V631.052h-48.121v107.036
			c0,27.378-3.361,45.542-10.001,54.536c-6.68,9.052-18.519,13.586-35.471,13.586c-11.17,0-21.097-2.109-29.85-6.247
			c-8.749-4.065-15.579-9.844-20.457-17.344c-3.563-4.922-6.061-11.33-7.5-19.219c-1.373-7.807-2.043-20.281-2.043-37.346v-95.003
			H1158.831z"/>
		<path id="path38" fill="#004B91" d="M1579.021,779.96c-7.419,8.13-16.01,14.26-25.781,18.435
			c-9.69,4.263-20.149,6.409-31.399,6.409c-19.501,0-35.12-6.32-46.882-18.904c-11.678-12.62-17.498-29.297-17.498-50.003
			c0-21.68,5.86-38.708,17.659-51.094c11.759-12.422,28.041-18.596,48.9-18.596c11.569,0,21.881,2.11,30.941,6.416
			c9.06,4.365,17.069,10.927,24.06,19.68V637.46c-8.862-5.003-18.281-8.753-28.282-11.25c-9.998-2.497-20.698-3.75-32.029-3.75
			c-32.618,0-59.22,10.393-79.841,31.253c-20.548,20.815-30.78,47.74-30.78,80.779c0,33.523,10.62,60.63,31.871,81.248
			c21.332,20.632,49.219,30.938,83.591,30.938c10.829,0,20.79-1.084,29.85-3.281c9.141-2.109,17.688-5.303,25.62-9.683V779.96z"/>
		<path id="path40" fill="#004B91" d="M1828.792,728.237h-166.56c1.128-19.489,6.907-34.688,17.34-45.615
			c10.389-10.943,24.257-16.414,41.557-16.414c15.323,0,28.052,3.201,38.28,9.69c10.32,6.445,19.259,16.875,26.88,31.253
			l40.313-22.5c-11.803-20.94-26.331-36.563-43.59-46.883c-17.311-10.188-37.581-15.307-60.78-15.307
			c-33.443,0-60.081,10.159-79.853,30.469c-19.68,20.391-29.527,47.586-29.527,81.563c0,32.703,10.198,59.568,30.63,80.633
			c20.386,21.006,46.636,31.553,78.75,31.553c33.508,0,59.677-9.646,78.427-28.909c18.75-19.175,28.132-46.047,28.132-80.618
			V728.237z M1779.262,760.273c-1.883,14.891-7.621,26.25-17.19,34.065c-9.493,7.896-22.5,11.872-39.06,11.872
			c-15.63,0-28.243-3.83-37.811-11.411c-9.5-7.609-16.099-19.138-19.849-34.526H1779.262z"/>
		<path id="path42" fill="#004B91" d="M2019.731,631.052h52.339v321.716h-52.339V631.052z"/>
		<path id="path44" fill="#004B91" d="M2251.018,908.398V631.052h-52.189v277.346h-85.469v44.37h222.81v-44.37H2251.018z"/>
		<path id="path46" fill="#004B91" d="M2771.023,874.487c-14.817,12.583-30.476,22.031-47.043,28.286
			c-16.48,6.328-33.75,9.529-51.87,9.529c-35.23,0-63.868-11.323-85.943-33.904c-21.988-22.5-32.966-51.716-32.966-87.656
			c0-34.688,10.708-63.362,32.19-85.943c21.445-22.5,48.515-33.75,81.248-33.75c18.947,0,37.031,3.333,54.221,10.005
			c17.263,6.753,33.83,16.956,49.688,30.622v-59.055c-14.07-10.122-29.377-17.659-45.938-22.661
			c-16.561-5.003-34.527-7.5-53.906-7.5c-24.617,0-47.344,4.021-68.284,12.026c-20.86,8.138-39.178,20.003-54.998,35.633
			c-15.623,15.396-27.649,33.508-36.094,54.367c-8.438,20.94-12.656,43.177-12.656,66.724c0,23.628,4.219,45.821,12.656,66.563
			c8.444,20.706,20.625,38.906,36.563,54.529c16.018,15.821,34.379,27.818,54.998,35.94c20.632,8.13,42.971,12.188,67.031,12.188
			c18.83,0,36.796-2.768,53.913-8.284c17.19-5.427,33.824-13.703,49.996-24.844L2771.023,874.487z"/>
		<path id="path48" fill="#004B91" d="M2996.023,734.492c0,19.38-6.255,35.706-18.75,49.057
			c-12.437,13.44-27.62,20.164-45.63,20.164c-17.929,0-33.12-6.724-45.622-20.164c-12.503-13.352-18.75-29.677-18.75-49.057
			c0-19.292,6.247-35.617,18.75-49.065c12.502-13.44,27.685-20.156,45.622-20.156c17.806,0,32.967,6.716,45.469,20.156
			C2989.688,698.874,2996.023,715.2,2996.023,734.492z M2816.954,734.96c0,15.198,2.849,29.568,8.598,43.133
			c5.815,13.623,14.136,25.694,24.997,36.247c10.621,10.394,22.889,18.362,36.871,23.899c13.952,5.632,28.52,8.438,43.748,8.438
			c15.63,0,30.351-2.805,44.224-8.438c13.828-5.536,26.25-13.711,37.192-24.529c11.009-10.744,19.409-22.888,25.145-36.409
			c5.713-13.432,8.605-27.568,8.605-42.341c0-15.315-2.893-29.758-8.605-43.279c-5.618-13.44-13.858-25.393-24.676-35.786
			c-11.375-11.052-24.031-19.372-37.969-24.997c-13.997-5.625-28.601-8.438-43.916-8.438c-15.118,0-29.649,2.813-43.587,8.438
			c-13.872,5.625-26.213,13.792-37.031,24.529c-11.059,10.826-19.46,22.969-25.158,36.416
			C2819.773,705.349,2816.954,719.734,2816.954,734.96L2816.954,734.96z"/>
		<path id="path50" fill="#004B91" d="M3096.842,631.052v208.286h44.839v-34.065c9.448,14.378,20.662,24.851,33.589,31.406
			c12.891,6.643,28.601,9.997,47.029,9.997c15.513,0,28.755-2.497,39.69-7.5c10.942-4.914,19.461-12.143,25.635-21.716
			c3.625-5.742,6.248-12.458,7.807-20.156c1.641-7.609,2.498-20.896,2.498-39.844V631.052H3249.8v107.036
			c0,27.378-3.347,45.542-9.998,54.536c-6.679,9.052-18.515,13.586-35.464,13.586c-11.177,0-21.101-2.109-29.846-6.247
			c-8.752-4.065-15.586-9.844-20.471-17.344c-3.552-4.922-6.05-11.33-7.5-19.219c-1.362-7.807-2.029-20.281-2.029-37.346v-95.003
			H3096.842z"/>
		<path id="path52" fill="#004B91" d="M3337.457,668.874l39.536,21.555c2.886-10.429,8.321-18.362,16.245-23.753
			c7.896-5.427,18.055-8.122,30.469-8.122c10.701,0,19.102,2.425,25.166,7.346c6.131,4.878,9.214,11.602,9.214,20.149
			c0,11.25-10.854,20.86-32.497,28.909c-7.427,2.703-13.088,4.885-17.036,6.563c-22.185,9.258-37.771,18.641-46.714,28.125
			c-8.87,9.573-13.286,21.175-13.286,34.841c0,18.524,7.266,33.604,21.877,45.161c14.568,11.565,33.911,17.344,57.971,17.344
			c16.128,0,29.92-2.974,41.396-8.899c11.456-5.947,19.849-14.385,25.159-25.32l-33.904-23.284
			c-2.505,6.563-6.87,11.763-13.125,15.63c-6.167,3.941-13.359,5.932-21.555,5.932c-9.075,0-16.369-2.182-21.885-6.563
			c-5.427-4.291-8.115-9.997-8.115-17.19c0-10.846,12.261-20.742,36.87-29.677c7.698-2.82,13.667-5.119,17.966-6.885
			c19.138-7.617,32.849-16.208,41.089-25.774c8.321-9.609,12.502-21.563,12.502-35.94c0-20.742-7.573-37.031-22.654-48.904
			c-15-11.762-35.779-17.659-62.344-17.659c-20.31,0-37.265,3.831-50.786,11.411C3355.592,641.453,3345.038,653.12,3337.457,668.874
			L3337.457,668.874z"/>
		<path id="path54" fill="#004B91" d="M3599.063,839.338V721.989c0-20.229,4.138-34.76,12.495-43.594
			c8.445-8.745,22.031-13.125,40.781-13.125s32.271,4.38,40.627,13.125c8.321,8.833,12.502,23.365,12.502,43.594v117.349h47.651
			V736.374c0-39.924-8.042-68.877-24.06-86.888c-15.938-18.039-41.404-27.026-76.399-27.026c-35.552,0-61.333,8.914-77.351,26.719
			c-15.93,17.893-23.899,46.948-23.899,87.195v102.964H3599.063z"/>
		<path id="path56" fill="#004B91" d="M3819.728,631.059h47.666v340.62h-47.666V631.059z"/>
		<path id="path58" fill="#004B91" d="M3946.561,631.052v166.568h-36.563v41.719h36.563v78.904h47.659v-78.904h36.401v-41.719
			h-36.401V631.052H3946.561z"/>
		<path id="path60" fill="#004B91" d="M4067.3,929.492c0,8.006,2.974,14.92,8.906,20.779c5.947,5.94,13.015,8.906,21.255,8.906
			c8.438,0,15.469-2.885,21.086-8.584c5.713-5.633,8.606-12.664,8.606-21.101c0-8.547-2.893-15.739-8.606-21.563
			c-5.734-5.734-12.766-8.591-21.086-8.591c-8.24,0-15.308,2.966-21.255,8.899C4070.274,914.177,4067.3,921.252,4067.3,929.492z
			 M4073.709,631.052v208.286h47.659V631.052H4073.709z"/>
		<path id="path62" fill="#004B91" d="M4189.3,631.052v208.286h44.84v-34.065c9.448,14.378,20.661,24.851,33.588,31.406
			c12.891,6.643,28.602,9.997,47.043,9.997c15.498,0,28.748-2.497,39.684-7.5c10.935-4.914,19.453-12.143,25.626-21.716
			c3.625-5.742,6.249-12.458,7.809-20.156c1.64-7.609,2.498-20.896,2.498-39.844V631.052h-48.12v107.036
			c0,27.378-3.355,45.542-9.999,54.536c-6.679,9.052-18.515,13.586-35.47,13.586c-11.177,0-21.102-2.109-29.846-6.247
			c-8.753-4.065-15.579-9.844-20.472-17.344c-3.553-4.922-6.05-11.33-7.5-19.219c-1.362-7.807-2.028-20.281-2.028-37.346v-95.003
			H4189.3z"/>
		<path id="path64" fill="#004B91" d="M4603.55,735.898c0,21.563-5.067,38.32-15.146,50.31
			c-10.005,11.954-24.023,17.974-42.034,17.974c-18.046,0-32.19-6.211-42.502-18.589c-10.32-12.429-15.469-29.539-15.469-51.416
			c0-22.185,4.922-39.294,14.838-51.247c10.005-11.989,24.06-17.966,42.195-17.966c17.19,0,31.128,6.49,41.865,19.526
			C4598.124,697.497,4603.55,714.65,4603.55,735.898z M4649.803,644.023c0-40.7-8.123-69.375-24.375-85.935
			c-16.245-16.64-43.667-24.997-82.185-24.997c-28.674,0-51.563,6.05-68.752,18.12c-17.109,12.107-25.781,28.133-26.089,48.128
			l51.086,0.307c0.711-8.942,4.894-15.776,12.503-20.464c7.698-4.695,18.442-7.031,32.19-7.031c20.31,0,34.922,4.49,43.909,13.44
			c8.943,8.98,13.469,23.899,13.594,44.839l0.469,27.664c-8.445-12.005-18.362-20.948-29.692-26.88
			c-11.367-5.822-24.368-8.753-39.06-8.753c-29.487,0-52.662,10.042-69.529,30.161c-16.883,20.186-25.32,47.805-25.32,82.807
			c0,33.201,8.599,60.037,25.789,80.471c17.263,20.508,39.88,30.776,67.815,30.776c16.948,0,31.479-3.589,43.586-10.781
			c12.07-7.104,20.859-17.307,26.411-30.623v34.065h47.651V644.023z"/>
		<path id="path66" fill="#6799C8" d="M1173.161,94.531h33.439c18.83,0,32.97,3.67,42.353,11.089
			c9.368,7.39,14.059,18.64,14.059,33.757c0,14.883-4.53,26.484-13.601,34.841c-9.06,8.445-21.68,12.664-37.807,12.664h-38.441
			V94.531z M1173.161,206.093h31.41c16.879,0,29.879,3.904,39.06,11.719c9.14,7.888,13.751,19.065,13.751,33.435
			c0,14.268-4.611,25.078-13.751,32.505c-9.06,7.5-22.339,11.25-39.84,11.25h-30.63V206.093z M1152.071,74.528v239.854h45.469
			c26.872,0,47.069-5.164,60.622-15.469c13.637-10.32,20.468-25.752,20.468-46.253c0-12.62-2.769-23.519-8.28-32.659
			c-5.548-9.185-13.55-16.37-24.06-21.563c12.689-5.552,22.339-13.242,28.912-23.13c6.559-9.917,9.84-21.79,9.84-35.618
			c0-19.922-6.683-35.742-20.002-47.498c-13.239-11.807-31.33-17.666-54.221-17.666H1152.071z M1314.02,72.192v176.719l19.53,2.336
			V213.44c7.072,13.63,15.711,23.899,25.939,30.776c10.203,6.878,22.031,10.313,35.471,10.313h4.691l-7.973-19.365
			c-19.918-1.882-34.61-10.554-44.059-25.943c-9.379-15.432-14.07-38.401-14.07-68.914V74.528L1314.02,72.192z"/>
		<path id="path68" fill="#6799C8" d="M1407.62,303.747l14.681,17.974l15-16.099l-15-17.959L1407.62,303.747z M1412.461,71.716
			v177.195l19.999,2.336V74.528L1412.461,71.716z"/>
		<path id="path70" fill="#6799C8" d="M1482.73,161.716c0-19.995,7.071-37.024,21.251-51.094
			c14.139-14.063,31.249-21.094,51.248-21.094c19.892,0,36.881,7.031,50.94,21.094c14.063,14.07,21.101,31.099,21.101,51.094
			c0,19.885-7.038,36.878-21.101,50.948c-14.059,14.055-31.048,21.086-50.94,21.086c-19.999,0-37.109-7.031-51.248-21.086
			C1489.801,198.593,1482.73,181.601,1482.73,161.716z M1627.269,108.908c-9.071-12.495-19.768-22.105-32.039-28.748
			c-12.302-6.57-25.62-9.851-40.001-9.851c-26.25,0-48.238,8.753-65.93,26.25c-17.739,17.578-26.568,39.301-26.568,65.156
			c0,25.826,8.788,47.425,26.407,64.841c17.702,17.395,39.73,26.104,66.09,26.104c15,0,28.6-3.362,40.792-9.998
			c12.261-6.57,22.69-16.216,31.249-28.916v105.469l19.212,2.505V74.528l-19.212-2.336V108.908z"/>
		<path id="path72" fill="#6799C8" d="M1693.279,190.471c0-12.935,5.043-23.833,15.161-32.659
			c10.078-8.862,22.65-13.279,37.65-13.279s27.499,4.38,37.5,13.125c10.001,8.826,15,19.761,15,32.813
			c0,12.07-5.108,22.383-15.311,30.938c-10.118,8.511-22.5,12.81-37.189,12.81c-14.681,0-27.18-4.299-37.5-12.81
			C1698.362,212.971,1693.279,202.658,1693.279,190.471z M1780.47,134.689c13.012-5.86,23.049-13.909,30.15-24.221
			c7.189-10.305,10.789-21.951,10.789-34.849c0-19.058-7.58-34.995-22.657-47.813c-15-12.884-33.911-19.365-56.723-19.365
			c-16.37,0-31.329,3.706-44.839,11.089c-13.44,7.42-24.77,18.054-33.911,31.883l17.662,11.558
			c7.379-11.558,16.289-20.31,26.719-26.25c10.389-6.02,21.87-9.06,34.369-9.06c16.33,0,30.241,4.68,41.723,14.055
			c11.557,9.302,17.34,20.588,17.34,33.904c0,14.07-5.782,25.979-17.34,35.794c-11.481,9.873-25.393,14.839-41.723,14.839
			c-6.8,0-13.868-0.945-21.248-2.813c-7.302-1.802-15.08-4.526-23.28-8.276l8.438,22.031c-10.627,6.006-18.83,13.623-24.529,22.808
			c-5.629,9.14-8.441,19.299-8.441,30.469c0,17.497,6.87,32.227,20.621,44.224c13.751,11.946,30.67,17.966,50.79,17.966
			c2.999,0,6.321-0.161,10.001-0.469c3.629-0.242,7.419-0.55,11.4-0.945c0.938-0.117,1.798-0.227,2.659-0.308
			c0.941,0,2.38,0,4.369,0c6.251,0,13.282,0.622,21.101,1.868c7.891,1.333,18.669,3.75,32.34,7.193l-4.369-13.586
			c-1.26-3.75-2.82-6.335-4.691-7.661c-1.802-1.253-4.339-1.875-7.661-1.875c-1.988,0-7.259,0.622-15.78,1.875
			c-1.798,0.198-3.127,0.352-4.057,0.469c9.569-5.434,16.787-12.312,21.72-20.632c4.999-8.24,7.5-17.607,7.5-28.118
			c0-12.188-3.362-23.13-10.001-32.813C1802.231,148.048,1792.731,140.388,1780.47,134.689z"/>
		<path id="path74" fill="#6799C8" d="M1850.589,303.747l14.681,17.974l15-16.099l-15-17.959L1850.589,303.747z M1855.43,71.716
			v177.195l19.999,2.336V74.528L1855.43,71.716z"/>
		<path id="path76" fill="#6799C8" d="M1913.829,72.192v176.719l19.531,2.336v-29.685c7.378,10.628,15.82,18.596,25.309,23.906
			c9.452,5.31,20.083,7.976,31.882,7.976c19.248,0,34.219-5.903,44.84-17.666c10.63-11.674,15.941-28.242,15.941-49.688V74.528
			l-19.061-2.336v104.216c0,20.076-3.91,35.193-11.719,45.308c-7.822,10.085-19.501,15.161-34.999,15.161
			c-14.073,0-26.33-5.237-36.723-15.63c-10.31-10.43-15.469-23.049-15.469-37.808V74.528L1913.829,72.192z"/>
		<path id="path78" fill="#6799C8" d="M2097.972,190.471c0-12.935,5.039-23.833,15.15-32.659
			c10.078-8.862,22.657-13.279,37.657-13.279s27.502,4.38,37.5,13.125c10.001,8.826,15,19.761,15,32.813
			c0,12.07-5.12,22.383-15.308,30.938c-10.122,8.511-22.5,12.81-37.192,12.81c-14.689,0-27.188-4.299-37.5-12.81
			C2103.051,212.971,2097.972,202.658,2097.972,190.471L2097.972,190.471z M2185.159,134.689c13-5.86,23.042-13.909,30.15-24.221
			c7.192-10.305,10.781-21.951,10.781-34.849c0-19.058-7.57-34.995-22.65-47.813c-15-12.884-33.911-19.365-56.719-19.365
			c-16.369,0-31.333,3.706-44.843,11.089c-13.44,7.42-24.77,18.054-33.907,31.883l17.647,11.558
			c7.391-11.558,16.293-20.31,26.723-26.25c10.39-6.02,21.877-9.06,34.38-9.06c16.329,0,30.227,4.68,41.719,14.055
			c11.561,9.302,17.34,20.588,17.34,33.904c0,14.07-5.779,25.979-17.34,35.794c-11.491,9.873-25.39,14.839-41.719,14.839
			c-6.8,0-13.872-0.945-21.251-2.813c-7.31-1.802-15.08-4.526-23.28-8.276l8.43,22.031c-10.62,6.006-18.82,13.623-24.529,22.808
			c-5.621,9.14-8.43,19.299-8.43,30.469c0,17.497,6.87,32.227,20.618,44.224c13.751,11.946,30.67,17.966,50.782,17.966
			c3.007,0,6.328-0.161,9.998-0.469c3.64-0.242,7.42-0.55,11.411-0.945c0.941-0.117,1.798-0.227,2.648-0.308c0.941,0,2.392,0,4.38,0
			c6.251,0,13.282,0.622,21.094,1.868c7.888,1.333,18.677,3.75,32.347,7.193l-4.38-13.586c-1.249-3.75-2.809-6.335-4.68-7.661
			c-1.798-1.253-4.339-1.875-7.657-1.875c-1.992,0-7.273,0.622-15.78,1.875c-1.802,0.198-3.131,0.352-4.061,0.469
			c9.569-5.434,16.791-12.312,21.709-20.632c5.002-8.24,7.5-17.607,7.5-28.118c0-12.188-3.358-23.13-9.998-32.813
			C2206.912,148.048,2197.42,140.388,2185.159,134.689z"/>
		<path id="path80" fill="#6799C8" d="M2426.25,74.528c-3.442-0.821-6.724-1.406-9.844-1.721c-3.127-0.388-6.057-0.615-8.745-0.615
			c-17.622,0-30.081,4.878-37.354,14.685c-7.295,9.763-10.927,27.693-10.927,53.745v89.216h-25.159l5.618,19.072h19.541v41.25
			l19.526,11.872v-53.123h45.623v-19.072h-45.623v-91.56c0-18.75,2.183-31.245,6.563-37.5c4.373-6.167,12.071-9.221,23.123-9.221
			c2.388,0,5.039,0.205,7.969,0.638c2.894,0.388,6.138,0.967,9.69,1.714V74.528z"/>
		<path id="path82" fill="#6799C8" d="M2444.956,72.192v247.024l19.534,2.505V221.562c7.391,10.628,15.821,18.596,25.313,23.906
			c9.456,5.31,20.076,7.976,31.875,7.976c19.263,0,34.226-5.903,44.846-17.666c10.627-11.674,15.938-28.242,15.938-49.688V74.528
			l-19.058-2.336v104.216c0,20.076-3.911,35.193-11.726,45.308c-7.807,10.085-19.489,15.161-34.995,15.161
			c-14.063,0-26.33-5.237-36.724-15.63c-10.305-10.43-15.469-23.049-15.469-37.808V74.528L2444.956,72.192z"/>
		<path id="path84" fill="#6799C8" d="M2630.509,146.716l115.151,68.445c-4.922,6.013-11.089,10.54-18.589,13.586
			c-7.42,3.135-15.901,4.695-25.474,4.695c-20.12,0-37.105-6.885-50.94-20.633c-13.858-13.747-20.779-30.703-20.779-50.779
			c0-3.245,0.044-6.014,0.161-8.284C2630.12,151.447,2630.266,149.104,2630.509,146.716L2630.509,146.716z M2770.819,95.161
			c-11.557-8.562-22.969-14.854-34.219-18.911c-11.25-3.948-22.932-5.94-35.002-5.94c-26.558,0-48.67,8.672-66.248,26.104
			c-17.498,17.498-26.25,39.251-26.25,65.303c0,25.943,8.789,47.549,26.411,64.841c17.688,17.395,39.719,26.104,66.086,26.104
			c16.64,0,31.171-3.604,43.601-10.781c12.502-7.185,22.222-17.579,29.209-31.099l-136.868-80.94
			c6.438-12.503,15.234-22.178,26.411-29.063c11.132-6.797,23.671-10.159,37.646-10.159c11.023,0,21.95,2.271,32.813,6.878
			c10.818,4.57,22.969,12.195,36.409,22.815V95.161z"/>
		<path id="path86" fill="#6799C8" d="M3094.732,204.695V102.968c-11.573-11.17-24.653-19.607-39.221-25.305
			c-14.488-5.633-30.118-8.445-46.883-8.445c-16.867,0-32.651,2.813-47.336,8.445c-14.612,5.698-27.62,14.135-39.06,25.305
			c-12.312,11.565-21.958,25.393-28.909,41.565c-6.995,16.245-10.474,32.886-10.474,49.995c0,15,2.702,29.612,8.13,43.916
			c5.5,14.363,13.359,27.378,23.591,39.053c11.638,13.755,25.51,24.141,41.558,31.253c16.142,7.193,33.64,10.781,52.5,10.781
			c15.71,0,30.513-2.578,44.385-7.654c13.828-4.995,26.44-12.495,37.808-22.5l-13.594-15.784
			c-10.115,8.635-20.94,15.08-32.498,19.372c-11.492,4.372-23.519,6.563-36.101,6.563c-29.179,0-53.826-10.115-73.901-30.307
			c-20.119-20.12-30.154-45-30.154-74.693c0-29.795,9.997-54.756,30-74.839c20.075-20.12,44.685-30.161,73.748-30.161
			c11.88,0,23.276,1.919,34.219,5.779c11.008,3.831,21.438,9.536,31.252,17.036v72.034h-80.633l7.823,20.318H3094.732z"/>
		<path id="path88" fill="#6799C8" d="M3138.707,134.382c0-12.935,4.38-23.723,13.132-32.351c8.753-8.547,19.761-12.81,33.12-12.81
			c13.198,0,23.914,4.138,32.029,12.495c8.211,8.32,12.356,19.226,12.356,32.666c0,13.315-4.145,24.14-12.356,32.498
			c-8.115,8.43-18.706,12.649-31.714,12.649c-13.557,0-24.682-4.299-33.435-12.81c-8.745-8.555-13.125-19.336-13.125-32.336
			H3138.707z M3229.336,92.033c-6.248-7.193-13.359-12.62-21.248-16.253c-7.823-3.633-16.369-5.471-25.627-5.471
			c-17.731,0-32.813,6.175-45.307,18.604c-12.503,12.495-18.75,27.649-18.75,45.469c0,17.571,6.247,32.651,18.75,45.146
			c12.576,12.583,27.685,18.911,45.307,18.911c8.95,0,17.417-1.802,25.466-5.317c8.123-3.428,15.235-8.43,21.409-15v22.039
			c0,12.07-3.083,20.969-9.214,26.719c-6.064,5.698-15.469,8.591-28.286,8.591c-7.5,0-15.63-1.091-24.375-3.281
			c-8.752-2.11-18.83-5.552-30.161-10.313l7.823,22.654c8.511,3.01,16.867,5.236,24.997,6.716c8.204,1.45,16.128,2.197,23.753,2.197
			c19.057,0,33.01-4.46,41.865-13.286c8.833-8.869,13.286-22.889,13.286-42.034V74.528l-19.68-4.219L3229.336,92.033z"/>
		<path id="path90" fill="#6799C8" d="M3303.282,161.716c0-19.995,7.031-37.024,21.101-51.094
			c14.135-14.063,31.165-21.094,51.086-21.094c19.878,0,36.87,7.031,50.94,21.094c14.063,14.07,21.094,31.099,21.094,51.094
			c0,19.885-7.031,36.878-21.094,50.948c-14.07,14.055-31.062,21.086-50.94,21.086c-19.921,0-36.951-7.031-51.086-21.086
			C3310.313,198.593,3303.282,181.601,3303.282,161.716z M3283.748,248.911l19.534,2.336v-37.031
			c9.141,12.503,19.841,22.031,32.029,28.594c12.269,6.57,25.672,9.851,40.159,9.851c26.133,0,48.01-8.708,65.617-26.104
			c17.586-17.417,26.411-39.016,26.411-64.841c0-26.052-8.825-47.805-26.411-65.303c-17.607-17.432-39.484-26.104-65.617-26.104
			c-15,0-28.667,3.362-40.942,9.998c-12.297,6.643-22.727,16.297-31.245,28.909V12.968l-19.534-2.498V248.911z"/>
	</g>
</g>
</svg>
