<?xml version="1.0" encoding="utf-8"?>
<!-- Generator: Adobe Illustrator 24.2.0, SVG Export Plug-In . SVG Version: 6.00 Build 0)  -->
<svg version="1.1" id="Layer_1" xmlns="http://www.w3.org/2000/svg" xmlns:xlink="http://www.w3.org/1999/xlink" x="0px" y="0px"
	 viewBox="0 0 256.667 159.667" enable-background="new 0 0 256.667 159.667" xml:space="preserve">
<g>
	<g>
		<path fill="#101820" d="M71.63,120.415c0.577-0.752,0.81-1.721,0.644-2.654l-4.697-17.241c-0.287-1.631-1.714-2.819-3.37-2.817
			c-1.66-0.003-3.086,1.188-3.376,2.82l-4.691,17.247c-0.166,0.939,0.067,1.904,0.647,2.656c0.574,0.757,1.439,1.24,2.386,1.335
			c3.311,0.321,6.702,0.317,10.072-0.012C70.19,121.66,71.058,121.176,71.63,120.415"/>
		<path fill="#101820" d="M91.698,113.471c0.245-0.915,0.091-1.899-0.42-2.699L80.34,96.64c-0.889-1.396-2.662-1.948-4.191-1.312
			c-1.535,0.633-2.397,2.279-2.04,3.898l2.266,17.729c0.207,0.93,0.791,1.734,1.615,2.207c0.819,0.479,1.803,0.595,2.714,0.321
			c3.181-0.971,6.313-2.272,9.301-3.866C90.844,115.171,91.46,114.393,91.698,113.471"/>
		<path fill="#101820" d="M107.58,99.375c-0.123-0.939-0.643-1.79-1.421-2.333l-15.514-8.87c-1.356-0.95-3.205-0.782-4.374,0.392
			c-1.176,1.172-1.343,3.022-0.394,4.382l8.878,15.512c0.547,0.781,1.394,1.3,2.336,1.421c0.941,0.129,1.893-0.141,2.631-0.743
			c2.567-2.114,4.963-4.515,7.113-7.13C107.442,101.273,107.714,100.318,107.58,99.375"/>
		<path fill="#101820" d="M116.859,80.274c-0.473-0.82-1.279-1.408-2.205-1.611l-17.727-2.258c-1.616-0.359-3.261,0.504-3.891,2.036
			c-0.638,1.532-0.083,3.305,1.313,4.199l14.139,10.934c0.804,0.512,1.785,0.667,2.703,0.419c0.919-0.241,1.695-0.855,2.146-1.694
			c1.563-2.935,2.857-6.07,3.843-9.309C117.458,82.081,117.343,81.095,116.859,80.274"/>
		<path fill="#101820" d="M77.982,13.848c-0.82,0.473-1.407,1.279-1.611,2.205L74.113,33.78c-0.359,1.616,0.504,3.261,2.036,3.891
			c1.532,0.638,3.305,0.084,4.199-1.314l10.934-14.139c0.512-0.804,0.667-1.785,0.419-2.703c-0.241-0.919-0.855-1.696-1.693-2.146
			c-2.936-1.563-6.071-2.857-9.31-3.843C79.789,13.249,78.802,13.364,77.982,13.848"/>
		<path fill="#009ABE" d="M107.228,12.08c-0.939,0.123-1.789,0.643-2.332,1.421l-8.87,15.513c-0.95,1.356-0.782,3.205,0.392,4.374
			c1.172,1.176,3.022,1.343,4.381,0.394l15.513-8.878c0.78-0.547,1.299-1.394,1.421-2.336c0.129-0.941-0.141-1.893-0.743-2.631
			c-2.114-2.567-4.515-4.963-7.13-7.113C109.126,12.218,108.17,11.947,107.228,12.08"/>
		<path fill="#101820" d="M111.178,39.01c-0.915-0.245-1.899-0.09-2.699,0.42L94.348,50.368c-1.397,0.889-1.949,2.662-1.313,4.191
			c0.633,1.535,2.279,2.397,3.897,2.04l17.73-2.266c0.93-0.207,1.734-0.791,2.207-1.615c0.479-0.819,0.595-1.803,0.321-2.714
			c-0.971-3.181-2.272-6.313-3.866-9.301C112.878,39.864,112.1,39.247,111.178,39.01"/>
		<path fill="#101820" d="M118.123,59.077c-0.752-0.577-1.72-0.811-2.654-0.644L98.227,63.13c-1.631,0.287-2.819,1.714-2.816,3.37
			c-0.004,1.66,1.187,3.086,2.82,3.376l17.247,4.691c0.939,0.166,1.905-0.067,2.658-0.647c0.756-0.574,1.239-1.439,1.334-2.386
			c0.321-3.311,0.317-6.702-0.012-10.072C119.368,60.517,118.883,59.65,118.123,59.077"/>
		<path fill="#101820" d="M56.784,12.585c-0.577,0.752-0.81,1.721-0.644,2.654l4.697,17.241c0.287,1.631,1.714,2.82,3.37,2.817
			c1.66,0.003,3.086-1.188,3.376-2.82l4.691-17.247c0.166-0.939-0.067-1.905-0.647-2.658c-0.574-0.756-1.439-1.239-2.386-1.334
			c-3.311-0.321-6.702-0.317-10.072,0.012C58.224,11.34,57.357,11.824,56.784,12.585"/>
		<path fill="#101820" d="M36.717,19.663c-0.245,0.915-0.091,1.899,0.42,2.699l10.938,14.131c0.89,1.397,2.662,1.949,4.191,1.312
			c1.535-0.632,2.397-2.278,2.04-3.897L52.04,16.178c-0.207-0.93-0.79-1.734-1.615-2.208c-0.819-0.479-1.803-0.594-2.714-0.32
			c-3.181,0.97-6.313,2.272-9.301,3.866C37.571,17.961,36.954,18.741,36.717,19.663"/>
		<path fill="#101820" d="M20.834,33.758c0.123,0.939,0.643,1.789,1.421,2.332l15.513,8.87c1.356,0.95,3.205,0.782,4.374-0.392
			c1.176-1.172,1.343-3.022,0.394-4.381l-8.878-15.512c-0.547-0.781-1.394-1.3-2.336-1.421c-0.941-0.129-1.893,0.141-2.631,0.743
			c-2.567,2.114-4.963,4.515-7.113,7.13C20.972,31.86,20.701,32.815,20.834,33.758"/>
		<path fill="#101820" d="M11.555,52.859c0.473,0.82,1.279,1.407,2.205,1.611l17.727,2.258c1.616,0.359,3.26-0.504,3.891-2.036
			c0.638-1.532,0.084-3.305-1.313-4.198L19.927,39.559c-0.804-0.512-1.785-0.667-2.703-0.419c-0.919,0.241-1.696,0.855-2.146,1.694
			c-1.563,2.935-2.857,6.07-3.843,9.309C10.957,51.052,11.071,52.038,11.555,52.859"/>
		<path fill="#101820" d="M50.433,119.285c0.82-0.473,1.407-1.279,1.611-2.205l2.258-17.727c0.359-1.616-0.504-3.261-2.036-3.891
			c-1.532-0.638-3.305-0.084-4.199,1.313l-10.934,14.139c-0.512,0.804-0.667,1.785-0.419,2.703c0.241,0.919,0.855,1.696,1.693,2.146
			c2.936,1.563,6.071,2.857,9.31,3.843C48.626,119.884,49.613,119.769,50.433,119.285"/>
		<path fill="#101820" d="M31.332,110.006c0.939-0.123,1.789-0.643,2.332-1.421l8.87-15.514c0.95-1.356,0.782-3.205-0.392-4.374
			c-1.172-1.176-3.022-1.343-4.381-0.394l-15.513,8.878c-0.78,0.547-1.299,1.394-1.421,2.336c-0.129,0.941,0.141,1.894,0.743,2.631
			c2.114,2.568,4.515,4.963,7.13,7.113C29.434,109.868,30.39,110.139,31.332,110.006"/>
		<path fill="#101820" d="M17.237,94.124c0.915,0.245,1.899,0.09,2.699-0.42l14.131-10.938c1.397-0.889,1.949-2.662,1.312-4.191
			c-0.632-1.535-2.278-2.397-3.897-2.04l-17.729,2.265c-0.93,0.207-1.734,0.791-2.208,1.616c-0.479,0.819-0.594,1.803-0.32,2.714
			c0.97,3.181,2.272,6.313,3.866,9.301C15.536,93.27,16.315,93.886,17.237,94.124"/>
		<path fill="#101820" d="M10.292,74.056c0.752,0.577,1.721,0.811,2.654,0.644l17.241-4.697c1.631-0.287,2.819-1.714,2.817-3.37
			c0.003-1.66-1.188-3.086-2.82-3.376l-17.247-4.691c-0.939-0.165-1.905,0.067-2.657,0.647c-0.757,0.575-1.24,1.439-1.335,2.386
			c-0.321,3.311-0.316,6.702,0.012,10.072C9.047,72.616,9.531,73.484,10.292,74.056"/>
		<g>
			<path fill="#009ABE" d="M139.323,27.909h1.663l9.579,16.08l2.592,4.531h0.137c-0.105-2.213-0.21-4.426-0.21-6.639V27.909h1.487
				v22.784h-1.657l-9.578-16.08l-2.593-4.524h-0.137c0.105,2.174,0.209,4.25,0.209,6.462v14.142h-1.492V27.909z"/>
			<path fill="#009ABE" d="M157.007,27.909h1.696l4.216,13.31c0.864,2.77,1.453,4.878,2.39,7.641h0.137
				c0.937-2.763,1.559-4.871,2.423-7.641l4.216-13.31h1.591l-7.438,22.784h-1.728L157.007,27.909z"/>
			<path fill="#009ABE" d="M181.877,39.563c4.668,0,6.881-1.559,6.881-5.29c0-3.843-2.252-5.015-6.881-5.015h-4.223v10.305H181.877z
				 M176.064,27.909h6.226c5.081,0,8.092,1.657,8.092,6.364c0,4.459-3.044,6.638-8.092,6.638h-4.635v9.782h-1.591V27.909z"/>
			<path fill="#009ABE" d="M138.563,77.889c1.663,1.866,4.046,3.077,6.711,3.077c3.456,0,5.669-1.866,5.669-4.563
				c0-2.835-1.865-3.771-4.118-4.773l-3.457-1.558c-1.97-0.864-4.596-2.279-4.596-5.67c0-3.286,2.834-5.598,6.606-5.598
				c2.763,0,4.976,1.244,6.357,2.73l-0.93,1.068c-1.316-1.414-3.149-2.351-5.427-2.351c-3.012,0-5.015,1.591-5.015,4.085
				c0,2.625,2.278,3.628,3.941,4.387l3.456,1.525c2.528,1.139,4.773,2.554,4.773,6.05c0,3.49-2.868,6.121-7.294,6.121
				c-3.319,0-5.879-1.42-7.679-3.424L138.563,77.889z"/>
			<path fill="#009ABE" d="M161.371,81.071c3.352,0,5.879-2.979,5.879-7.333c0-4.393-2.527-7.398-5.879-7.398
				c-3.352,0-5.84,3.005-5.84,7.398C155.531,78.093,158.019,81.071,161.371,81.071 M161.371,64.992c4.014,0,7.47,3.182,7.47,8.747
				c0,5.5-3.456,8.682-7.47,8.682c-3.974,0-7.431-3.182-7.431-8.682C153.94,68.174,157.397,64.992,161.371,64.992"/>
			<path fill="#009ABE" d="M186.205,81.798c-0.969,0.341-2.043,0.622-2.736,0.622c-3.182,0-4.112-2.043-4.112-5.015V66.72h-6.469
				v15.281h-1.519V66.72h-2.285v-1.179l2.285-0.137v-3.699c0-3.287,1.487-4.976,4.112-4.976c0.759,0,1.663,0.203,2.422,0.55
				l-0.412,1.243c-0.694-0.347-1.388-0.484-2.01-0.484c-1.761,0-2.593,1.388-2.593,3.771v3.594h6.501l0.21-4.805h1.277v4.805h4.845
				v1.316h-4.845v10.823c0,2.108,0.557,3.529,2.835,3.529c0.622,0,1.486-0.242,2.075-0.523L186.205,81.798z"/>
			<path fill="#009ABE" d="M187.218,65.404h1.657l2.972,10.757c0.419,1.519,0.799,2.94,1.145,4.426h0.138
				c0.379-1.486,0.792-2.908,1.211-4.426l3.005-10.757h1.834l3.012,10.757c0.412,1.519,0.825,2.94,1.244,4.426h0.137
				c0.38-1.486,0.792-2.908,1.172-4.426l2.94-10.757h1.558l-4.772,16.597h-2.004l-2.907-10.305c-0.484-1.591-0.792-3.11-1.277-4.734
				h-0.137c-0.38,1.624-0.799,3.215-1.316,4.806l-2.868,10.233h-1.833L187.218,65.404z"/>
			<path fill="#009ABE" d="M214.581,81.104c1.899,0,3.594-0.937,5.631-2.698v-5.637c-6.809,0.799-9.127,2.39-9.127,5.015
				C211.085,80.168,212.676,81.104,214.581,81.104 M220.212,71.598c0.072-2.528-0.654-5.257-3.902-5.257
				c-2.252,0-4.184,1.106-5.29,1.938l-0.694-1.146c1.178-0.825,3.456-2.141,6.154-2.141c3.941,0,5.257,2.835,5.257,6.396v10.613
				h-1.283l-0.17-2.141h-0.072c-1.689,1.349-3.699,2.56-5.873,2.56c-2.632,0-4.845-1.421-4.845-4.57
				C209.494,74.191,212.852,72.422,220.212,71.598"/>
			<path fill="#009ABE" d="M224.186,65.404h1.316l0.138,3.077h0.104c1.107-2.037,2.73-3.49,4.701-3.49
				c0.622,0,1.106,0.066,1.657,0.347l-0.348,1.381c-0.55-0.21-0.864-0.275-1.519-0.275c-1.486,0-3.248,1.139-4.53,4.25v11.307
				h-1.519V65.404z"/>
			<path fill="#009ABE" d="M243.452,72.737c0-4.256-1.899-6.43-4.871-6.43c-2.835,0-5.362,2.455-5.709,6.43H243.452z
				 M238.542,64.992c3.941,0,6.364,2.802,6.364,7.673c0,0.419,0,0.832-0.066,1.244h-11.968c0.072,4.184,2.527,7.196,6.258,7.196
				c1.801,0,3.215-0.59,4.459-1.486l0.628,1.172c-1.316,0.799-2.802,1.63-5.225,1.63c-4.256,0-7.673-3.254-7.673-8.682
				C231.321,68.311,234.843,64.992,238.542,64.992"/>
			<path fill="#009ABE" d="M138.563,109.191c1.663,1.866,4.046,3.077,6.711,3.077c3.456,0,5.669-1.866,5.669-4.563
				c0-2.835-1.865-3.765-4.118-4.773l-3.457-1.552c-1.97-0.864-4.596-2.285-4.596-5.669c0-3.287,2.834-5.605,6.606-5.605
				c2.763,0,4.976,1.244,6.357,2.73l-0.93,1.074c-1.316-1.421-3.149-2.35-5.427-2.35c-3.012,0-5.015,1.591-5.015,4.079
				c0,2.625,2.278,3.633,3.941,4.393l3.456,1.519c2.528,1.139,4.773,2.56,4.773,6.05c0,3.496-2.868,6.122-7.294,6.122
				c-3.319,0-5.879-1.414-7.679-3.425L138.563,109.191z"/>
			<path fill="#009ABE" d="M161.371,112.373c3.352,0,5.879-2.972,5.879-7.326c0-4.393-2.527-7.405-5.879-7.405
				c-3.352,0-5.84,3.012-5.84,7.405C155.531,109.401,158.019,112.373,161.371,112.373 M161.371,96.293
				c4.014,0,7.47,3.182,7.47,8.754c0,5.493-3.456,8.675-7.47,8.675c-3.974,0-7.431-3.182-7.431-8.675
				C153.94,99.475,157.397,96.293,161.371,96.293"/>
			<path fill="#009ABE" d="M171.083,88.45h1.519v22.85c0,0.726,0.314,1.073,0.727,1.073c0.138,0,0.275,0,0.622-0.066l0.275,1.244
				c-0.308,0.105-0.622,0.17-1.107,0.17c-1.342,0-2.036-0.832-2.036-2.625V88.45z"/>
			<path fill="#009ABE" d="M176.046,96.712h1.519v10.442c0,3.523,1.107,5.185,3.772,5.185c1.97,0,3.424-1.041,5.362-3.391V96.712
				h1.519v16.597h-1.277l-0.177-2.769h-0.066c-1.63,1.905-3.359,3.181-5.637,3.181c-3.424,0-5.015-2.075-5.015-6.363V96.712z"/>
			<path fill="#009ABE" d="M192.916,98.022h-2.592V96.85l2.625-0.138l0.21-4.805h1.317v4.805h4.805v1.31h-4.805v10.823
				c0,2.114,0.517,3.529,2.795,3.529c0.622,0,1.486-0.243,2.076-0.517l0.419,1.244c-0.969,0.347-2.01,0.622-2.697,0.622
				c-3.214,0-4.151-2.037-4.151-5.016V98.022z"/>
			<path fill="#009ABE" d="M201.444,96.712h1.519v16.597h-1.519V96.712z M200.855,91.35c0-0.864,0.622-1.381,1.381-1.381
				c0.766,0,1.388,0.517,1.388,1.381c0,0.799-0.622,1.349-1.388,1.349C201.477,92.699,200.855,92.149,200.855,91.35"/>
			<path fill="#009ABE" d="M212.341,112.373c3.352,0,5.879-2.972,5.879-7.326c0-4.393-2.527-7.405-5.879-7.405
				c-3.352,0-5.84,3.012-5.84,7.405C206.501,109.401,208.988,112.373,212.341,112.373 M212.341,96.293
				c4.014,0,7.47,3.182,7.47,8.754c0,5.493-3.456,8.675-7.47,8.675c-3.974,0-7.431-3.182-7.431-8.675
				C204.91,99.475,208.366,96.293,212.341,96.293"/>
			<path fill="#009ABE" d="M221.418,96.712h1.316l0.138,2.56h0.104c1.69-1.696,3.418-2.979,5.703-2.979
				c3.424,0,5.015,2.076,5.015,6.364v10.652h-1.525v-10.442c0-3.529-1.106-5.185-3.803-5.185c-1.971,0-3.386,1.034-5.428,3.11
				v12.518h-1.519V96.712z"/>
			<path fill="#009ABE" d="M236.259,110.298c1.421,1.179,2.907,2.108,5.29,2.108c2.592,0,3.941-1.519,3.941-3.28
				c0-2.076-2.141-2.972-4.04-3.667c-2.527-0.897-5.296-1.905-5.296-4.74c0-2.416,1.906-4.426,5.362-4.426
				c1.761,0,3.529,0.727,4.741,1.729l-0.832,1.074c-1.106-0.832-2.285-1.486-3.974-1.486c-2.56,0-3.738,1.486-3.738,3.011
				c0,1.827,1.938,2.625,3.908,3.352c2.593,0.969,5.427,1.833,5.427,5.081c0,2.488-2.003,4.668-5.598,4.668
				c-2.455,0-4.603-1.034-6.089-2.279L236.259,110.298z"/>
		</g>
	</g>
	<g>
		<path fill="#101820" d="M95.349,134.274h0.945l1.582,7.483c0.309,1.389,0.598,2.777,0.887,4.147h0.077
			c0.289-1.369,0.636-2.758,0.964-4.147l2.006-7.483h0.887l2.006,7.483c0.328,1.389,0.675,2.758,1.003,4.147h0.077
			c0.289-1.389,0.559-2.758,0.849-4.147l1.582-7.483h0.887l-2.854,12.71h-0.984l-2.314-8.718c-0.231-1.003-0.444-1.871-0.675-2.874
			h-0.077c-0.212,1.003-0.463,1.871-0.694,2.874l-2.276,8.718h-0.984L95.349,134.274z"/>
		<path fill="#101820" d="M112.805,137.494c2.199,0,3.549,1.563,3.549,4.282c0,0.232,0,0.463-0.039,0.694h-6.673
			c0.039,2.334,1.408,4.011,3.491,4.011c1.003,0,1.794-0.328,2.488-0.829l0.347,0.656c-0.733,0.443-1.562,0.907-2.912,0.907
			c-2.372,0-4.282-1.813-4.282-4.841C108.774,139.346,110.741,137.494,112.805,137.494z M115.544,141.815
			c0-2.372-1.061-3.587-2.719-3.587c-1.582,0-2.989,1.369-3.182,3.587H115.544z"/>
		<path fill="#101820" d="M120.675,144.688c0.926,1.042,2.256,1.717,3.741,1.717c1.929,0,3.163-1.041,3.163-2.545
			c0-1.582-1.042-2.103-2.295-2.662l-1.929-0.868c-1.099-0.482-2.565-1.273-2.565-3.163c0-1.832,1.582-3.124,3.684-3.124
			c1.543,0,2.777,0.694,3.549,1.523l-0.521,0.598c-0.733-0.791-1.755-1.312-3.028-1.312c-1.678,0-2.797,0.887-2.797,2.276
			c0,1.465,1.273,2.025,2.199,2.449l1.929,0.849c1.408,0.636,2.661,1.427,2.661,3.375c0,1.948-1.601,3.414-4.069,3.414
			c-1.852,0-3.279-0.791-4.282-1.91L120.675,144.688z"/>
		<path fill="#101820" d="M129.587,137.726h0.849v5.825c0,1.967,0.617,2.893,2.102,2.893c1.099,0,1.909-0.579,2.989-1.89v-6.827
			h0.849v9.258h-0.714l-0.096-1.543h-0.039c-0.907,1.061-1.871,1.775-3.144,1.775c-1.91,0-2.797-1.157-2.797-3.549V137.726z"/>
		<path fill="#101820" d="M138.749,147.794v3.375H137.9v-13.443h0.733l0.077,1.157h0.058c0.907-0.713,2.006-1.389,3.144-1.389
			c2.469,0,3.703,1.852,3.703,4.725c0,3.144-1.909,4.996-4.089,4.996c-0.868,0-1.813-0.424-2.777-1.138V147.794z M141.488,146.463
			c1.871,0,3.221-1.736,3.221-4.243c0-2.275-0.81-3.973-2.932-3.973c-0.926,0-1.909,0.54-3.028,1.524v5.497
			C139.81,146.135,140.774,146.463,141.488,146.463z"/>
		<path fill="#101820" d="M147.603,147.794v3.375h-0.849v-13.443h0.733l0.077,1.157h0.058c0.906-0.713,2.006-1.389,3.144-1.389
			c2.469,0,3.703,1.852,3.703,4.725c0,3.144-1.909,4.996-4.089,4.996c-0.868,0-1.813-0.424-2.777-1.138V147.794z M150.342,146.463
			c1.871,0,3.221-1.736,3.221-4.243c0-2.275-0.81-3.973-2.932-3.973c-0.926,0-1.909,0.54-3.028,1.524v5.497
			C148.664,146.135,149.628,146.463,150.342,146.463z"/>
		<path fill="#101820" d="M159.562,137.494c2.237,0,4.166,1.774,4.166,4.88c0,3.066-1.928,4.841-4.166,4.841
			c-2.218,0-4.147-1.775-4.147-4.841C155.415,139.269,157.344,137.494,159.562,137.494z M159.562,146.463
			c1.871,0,3.279-1.659,3.279-4.089c0-2.449-1.408-4.127-3.279-4.127c-1.871,0-3.259,1.678-3.259,4.127
			C156.302,144.804,157.691,146.463,159.562,146.463z"/>
		<path fill="#101820" d="M164.77,137.726h0.733l0.077,1.717h0.058c0.617-1.138,1.524-1.948,2.623-1.948
			c0.347,0,0.617,0.039,0.926,0.193l-0.193,0.771c-0.309-0.116-0.482-0.154-0.849-0.154c-0.829,0-1.813,0.636-2.527,2.372v6.307
			h-0.849V137.726z"/>
		<path fill="#101820" d="M171.579,138.459h-1.447v-0.656l1.466-0.077l0.116-2.681h0.733v2.681h2.681v0.733h-2.681v6.037
			c0,1.177,0.289,1.968,1.562,1.968c0.347,0,0.829-0.135,1.157-0.289l0.232,0.694c-0.54,0.193-1.119,0.347-1.504,0.347
			c-1.794,0-2.314-1.138-2.314-2.797V138.459z"/>
		<path fill="#101820" d="M180.182,138.459h-1.447v-0.656l1.466-0.077l0.116-2.681h0.733v2.681h2.681v0.733h-2.681v6.037
			c0,1.177,0.289,1.968,1.563,1.968c0.347,0,0.829-0.135,1.157-0.289l0.231,0.694c-0.54,0.193-1.118,0.347-1.504,0.347
			c-1.794,0-2.314-1.138-2.314-2.797V138.459z"/>
		<path fill="#101820" d="M185.217,133.116h0.849v4.012v2.044c0.964-0.964,1.929-1.678,3.201-1.678c1.909,0,2.796,1.158,2.796,3.549
			v5.94h-0.848v-5.825c0-1.967-0.617-2.893-2.122-2.893c-1.099,0-1.89,0.579-3.028,1.736v6.982h-0.849V133.116z"/>
		<path fill="#101820" d="M197.118,137.494c2.199,0,3.549,1.563,3.549,4.282c0,0.232,0,0.463-0.039,0.694h-6.673
			c0.038,2.334,1.408,4.011,3.491,4.011c1.003,0,1.794-0.328,2.488-0.829l0.347,0.656c-0.733,0.443-1.562,0.907-2.912,0.907
			c-2.372,0-4.282-1.813-4.282-4.841C193.087,139.346,195.054,137.494,197.118,137.494z M199.857,141.815
			c0-2.372-1.061-3.587-2.72-3.587c-1.582,0-2.989,1.369-3.182,3.587H199.857z"/>
		<path fill="#101820" d="M205.22,134.274h6.924v0.772h-6.037v5.053h5.091v0.772h-5.091v6.114h-0.887V134.274z"/>
		<path fill="#101820" d="M212.356,137.726h0.849v5.825c0,1.967,0.617,2.893,2.102,2.893c1.099,0,1.909-0.579,2.989-1.89v-6.827
			h0.849v9.258h-0.714l-0.096-1.543h-0.039c-0.906,1.061-1.87,1.775-3.144,1.775c-1.909,0-2.796-1.157-2.796-3.549V137.726z"/>
		<path fill="#101820" d="M221.847,138.459H220.4v-0.656l1.466-0.077l0.116-2.681h0.733v2.681h2.681v0.733h-2.681v6.037
			c0,1.177,0.289,1.968,1.563,1.968c0.347,0,0.829-0.135,1.157-0.289l0.231,0.694c-0.54,0.193-1.118,0.347-1.504,0.347
			c-1.794,0-2.314-1.138-2.314-2.797V138.459z"/>
		<path fill="#101820" d="M226.476,137.726h0.849v5.825c0,1.967,0.617,2.893,2.102,2.893c1.099,0,1.909-0.579,2.989-1.89v-6.827
			h0.849v9.258h-0.713l-0.097-1.543h-0.039c-0.906,1.061-1.87,1.775-3.144,1.775c-1.909,0-2.796-1.157-2.796-3.549V137.726z"/>
		<path fill="#101820" d="M234.886,137.726h0.733l0.077,1.717h0.058c0.617-1.138,1.524-1.948,2.623-1.948
			c0.347,0,0.617,0.039,0.926,0.193l-0.193,0.771c-0.309-0.116-0.482-0.154-0.849-0.154c-0.829,0-1.813,0.636-2.526,2.372v6.307
			h-0.849V137.726z"/>
		<path fill="#101820" d="M243.296,137.494c2.199,0,3.549,1.563,3.549,4.282c0,0.232,0,0.463-0.039,0.694h-6.673
			c0.038,2.334,1.408,4.011,3.491,4.011c1.003,0,1.794-0.328,2.488-0.829l0.347,0.656c-0.733,0.443-1.562,0.907-2.912,0.907
			c-2.372,0-4.282-1.813-4.282-4.841C239.265,139.346,241.232,137.494,243.296,137.494z M246.035,141.815
			c0-2.372-1.061-3.587-2.72-3.587c-1.582,0-2.989,1.369-3.182,3.587H246.035z"/>
	</g>
</g>
</svg>
