<?xml version="1.0" encoding="utf-8"?>
<!-- Generator: Adobe Illustrator 24.2.0, SVG Export Plug-In . SVG Version: 6.00 Build 0)  -->
<svg version="1.1" id="Layer_1" xmlns="http://www.w3.org/2000/svg" xmlns:xlink="http://www.w3.org/1999/xlink" x="0px" y="0px"
	 viewBox="0 0 1585.3 500" enable-background="new 0 0 1585.3 500" xml:space="preserve">
<g>
	<polygon fill-rule="evenodd" clip-rule="evenodd" fill="#FA6405" points="1585.3,0 0,0 0,500 1585.3,500 1585.3,0 	"/>
	<path fill="#FFFFFF" d="M248.706,50c53.886,0,100.216,19.504,138.99,58.511c38.775,39.008,58.162,86.559,58.162,142.654
		c0,55.577-19.129,102.611-57.385,141.1C350.217,430.755,303.8,450,249.223,450c-57.168,0-104.664-19.763-142.487-59.288
		C68.912,351.187,50,304.239,50,249.871c0-36.419,8.809-69.903,26.426-100.453c17.617-30.551,41.84-54.758,72.668-72.622
		C179.922,58.932,213.126,50,248.706,50L248.706,50z M369.726,217.994c-5.262-22.403-16.23-42.198-32.904-59.386
		c-24.362-25.112-53.993-37.67-88.893-37.67c-35.248,0-64.88,12.255-88.896,36.764c-24.015,24.509-36.023,55.664-36.023,93.463
		c0,42.115,15.118,75.426,45.356,99.935c23.498,19.159,50.45,28.738,80.857,28.738c34.383,0,63.669-12.427,87.858-37.281
		c15.339-15.761,25.815-33.847,31.427-54.257H247.929v-70.306H369.726L369.726,217.994z"/>
	<path fill="#FFFFFF" d="M590.238,133.971c13.851,0,25.76,5.013,35.726,15.04c9.967,10.026,14.95,22.249,14.95,36.667
		c0,14.286-4.916,26.376-14.75,36.269c-9.834,9.894-21.765,14.841-35.793,14.841c-14.695,0-26.903-5.08-36.625-15.24
		c-9.723-10.159-14.584-22.227-14.584-36.202c0-9.361,2.264-17.968,6.793-25.821c4.528-7.852,10.754-14.074,18.678-18.666
		C572.557,136.267,581.092,133.971,590.238,133.971L590.238,133.971z M590.038,152.205c-9.06,0-16.677,3.15-22.85,9.45
		c-6.173,6.3-9.259,14.308-9.259,24.023c0,10.826,3.886,19.389,11.658,25.688c6.04,4.925,12.968,7.387,20.784,7.387
		c8.837,0,16.365-3.194,22.583-9.583c6.218-6.388,9.327-14.263,9.327-23.624c0-9.317-3.131-17.203-9.393-23.658
		C606.626,155.433,599.009,152.205,590.038,152.205L590.038,152.205z"/>
	<polygon fill="#FFFFFF" points="647.655,136.433 665.986,136.433 680.131,198.922 697.609,136.433 713.104,136.433 730.84,198.922 
		744.851,136.433 763.183,136.433 741.127,234.325 723.254,234.325 705.22,171.038 687.517,234.325 669.816,234.325 
		647.655,136.433 	"/>
	<polygon fill="#FFFFFF" points="774.383,136.433 827.821,136.433 827.821,154.667 792.883,154.667 792.883,172.369 
		827.821,172.369 827.821,190.27 792.883,190.27 792.883,216.024 827.821,216.024 827.821,234.325 774.383,234.325 774.383,136.433 
			"/>
	<polygon fill="#FFFFFF" points="841.849,136.433 859.724,136.433 901.609,200.851 901.609,136.433 920.243,136.433 
		920.243,234.325 902.317,234.325 860.483,170.107 860.483,234.325 841.849,234.325 841.849,136.433 	"/>
	<polygon fill="#FFFFFF" points="841.849,136.433 859.724,136.433 901.609,200.851 901.609,136.433 920.243,136.433 
		920.243,234.325 902.317,234.325 860.483,170.107 860.483,234.325 841.849,234.325 841.849,136.433 	"/>
	<path fill="#FFFFFF" d="M1064.293,152.404l-13.122,12.978c-8.303-8.785-17.983-13.177-29.039-13.177
		c-9.637,0-17.708,3.194-24.213,9.583c-6.505,6.388-9.757,14.152-9.757,23.292c0,9.449,3.375,17.457,10.126,24.023
		c6.751,6.566,15.078,9.85,24.982,9.85c6.44,0,11.869-1.353,16.289-4.06c4.419-2.706,7.983-6.943,10.692-12.71h-28.349v-17.502
		h49.245l0.133,4.126c0,8.562-2.218,16.681-6.654,24.356c-4.437,7.676-10.182,13.532-17.236,17.569
		c-7.055,4.037-15.328,6.056-24.823,6.056c-10.159,0-19.221-2.207-27.185-6.622c-7.963-4.414-14.263-10.703-18.899-18.866
		c-4.636-8.164-6.955-16.97-6.955-26.42c0-12.955,4.282-24.223,12.844-33.806c10.16-11.402,23.381-17.103,39.663-17.103
		c8.518,0,16.482,1.575,23.891,4.725C1052.181,141.358,1058.303,145.927,1064.293,152.404L1064.293,152.404z"/>
	<path fill="#FFFFFF" d="M1131.194,133.971c13.851,0,25.76,5.013,35.726,15.04c9.967,10.026,14.95,22.249,14.95,36.667
		c0,14.286-4.917,26.376-14.751,36.269c-9.833,9.894-21.764,14.841-35.792,14.841c-14.695,0-26.903-5.08-36.626-15.24
		c-9.722-10.159-14.583-22.227-14.583-36.202c0-9.361,2.264-17.968,6.792-25.821c4.529-7.852,10.755-14.074,18.679-18.666
		C1113.513,136.267,1122.048,133.971,1131.194,133.971L1131.194,133.971z M1130.994,152.205c-9.06,0-16.677,3.15-22.85,9.45
		c-6.173,6.3-9.259,14.308-9.259,24.023c0,10.826,3.886,19.389,11.658,25.688c6.04,4.925,12.968,7.387,20.784,7.387
		c8.837,0,16.365-3.194,22.583-9.583c6.218-6.388,9.326-14.263,9.326-23.624c0-9.317-3.131-17.203-9.393-23.658
		C1147.581,155.433,1139.965,152.205,1130.994,152.205L1130.994,152.205z"/>
	<polygon fill="#FFFFFF" points="1186.382,136.433 1240.486,136.433 1240.486,154.8 1222.65,154.8 1222.65,234.325 
		1203.751,234.325 1203.751,154.8 1186.382,154.8 1186.382,136.433 	"/>
	<polygon fill="#FFFFFF" points="1248.525,136.433 1267.025,136.433 1267.025,234.325 1248.525,234.325 1248.525,136.433 	"/>
	<polygon fill="#FFFFFF" points="1294.076,136.433 1312.231,136.433 1334.924,204.712 1357.823,136.433 1375.966,136.433 
		1392.388,234.325 1374.37,234.325 1363.872,172.502 1343.076,234.325 1326.654,234.325 1306.042,172.502 1295.294,234.325 
		1277.127,234.325 1294.076,136.433 	"/>
	<polygon fill="#FFFFFF" points="1403.888,136.433 1457.326,136.433 1457.326,154.667 1422.388,154.667 1422.388,172.369 
		1457.326,172.369 1457.326,190.27 1422.388,190.27 1422.388,216.024 1457.326,216.024 1457.326,234.325 1403.888,234.325 
		1403.888,136.433 	"/>
	<path fill="#FFFFFF" d="M1472.552,136.433h19.742c10.813,0,18.512,0.965,23.099,2.895c4.587,1.93,8.276,5.135,11.068,9.616
		c2.792,4.481,4.187,9.783,4.187,15.905c0,6.433-1.541,11.812-4.624,16.138c-3.083,4.326-7.73,7.598-13.94,9.816l23.189,43.522
		h-20.369l-22.013-41.459h-1.706v41.459h-18.633V136.433L1472.552,136.433z M1491.185,174.698h5.839
		c5.926,0,10.006-0.779,12.24-2.337c2.233-1.557,3.35-4.139,3.35-7.744c0-2.137-0.553-3.996-1.658-5.576
		c-1.106-1.58-2.588-2.715-4.445-3.405c-1.858-0.69-5.263-1.035-10.217-1.035h-5.109V174.698L1491.185,174.698z"/>
	<path fill="#FFFFFF" d="M863.506,301.699h7.984l-1.2,8.987c2.459-3.306,5.602-5.903,9.427-7.79c3.825-1.887,7.67-2.83,11.534-2.83
		c4.802,0,9.056,1.419,12.765,4.258c2.849,2.217,4.977,5.523,6.382,9.918c2.889-4.512,6.451-8.002,10.686-10.472
		c4.235-2.469,8.539-3.704,12.911-3.704c5.894,0,10.734,1.885,14.521,5.654c3.786,3.77,5.679,8.647,5.679,14.633
		c0,2.72-0.255,6.049-0.765,9.986l-4.51,34.834h-8.006l4.119-30.453c0.862-6.379,1.293-11.046,1.293-14.002
		c0-3.695-1.215-6.748-3.647-9.16c-2.432-2.411-5.632-3.616-9.601-3.616c-4.202,0-8.113,1.311-11.731,3.933
		c-3.619,2.623-6.187,5.721-7.705,9.296c-1.517,3.574-2.653,8.091-3.409,13.549l-4.21,30.453h-8.106l4.71-34.823
		c0.501-3.699,0.75-6.734,0.75-9.107c0-4.084-1.215-7.351-3.646-9.801c-2.432-2.45-5.608-3.676-9.529-3.676
		c-3.295,0-6.451,0.768-9.47,2.305c-3.02,1.535-5.49,3.548-7.412,6.036c-1.922,2.49-3.356,5.571-4.302,9.246
		c-0.947,3.676-1.618,6.992-2.012,9.95l-3.984,29.87h-8.101L863.506,301.699L863.506,301.699z"/>
	<path fill="#FFFFFF" d="M1032.915,335.069h-56.59c-0.116,7.546,1.848,13.477,5.893,17.794c4.045,4.317,9.432,6.475,16.16,6.475
		c4.473,0,8.615-0.914,12.426-2.741c3.812-1.828,6.962-4.396,9.452-7.701l6.067,4.959c-3.073,3.928-7.089,7.068-12.047,9.422
		c-4.959,2.353-10.317,3.529-16.073,3.529c-9.957,0-17.434-3.082-22.431-9.247c-4.998-6.164-7.497-13.097-7.497-20.798
		c0-6.301,1.682-12.368,5.046-18.202c3.365-5.834,7.866-10.375,13.506-13.622c5.639-3.248,11.745-4.871,18.318-4.871
		c8.129,0,14.858,2.751,20.186,8.255c5.328,5.503,7.993,12.513,7.993,21.031C1033.324,330.908,1033.188,332.813,1032.915,335.069
		L1032.915,335.069z M1025.448,327.952c-0.234-5.972-2.276-10.81-6.126-14.513c-3.851-3.704-8.692-5.556-14.527-5.556
		c-6.339,0-11.93,1.784-16.772,5.352c-4.842,3.568-8.275,8.473-10.297,14.717H1025.448L1025.448,327.952z"/>
	<path fill="#FFFFFF" d="M1107.881,365.173h-8.228l1.303-9.838c-7.527,7.647-15.997,11.471-25.408,11.471
		c-8.562,0-15.601-2.781-21.117-8.342c-5.515-5.562-8.273-12.719-8.273-21.469c0-10.113,3.597-18.796,10.79-26.049
		c7.193-7.254,15.657-10.88,25.39-10.88c5.275,0,9.899,1.108,13.874,3.326c3.975,2.218,7.392,5.68,10.253,10.388l4.852-36.583h8.464
		L1107.881,365.173L1107.881,365.173z M1076.624,359.338c5.24,0,10.014-1.233,14.322-3.702c4.308-2.469,7.724-6.016,10.247-10.642
		c2.522-4.626,3.784-9.659,3.784-15.102c0-6.577-2.076-11.929-6.23-16.054c-4.153-4.126-9.547-6.188-16.185-6.188
		c-7.801,0-14.477,2.82-20.028,8.459c-5.55,5.639-8.325,12.562-8.325,20.769c0,6.728,2.076,12.154,6.229,16.277
		C1064.592,357.277,1069.987,359.338,1076.624,359.338L1076.624,359.338z"/>
	<path fill="#FFFFFF" d="M1140.201,275.563c1.789,0,3.326,0.642,4.609,1.925c1.284,1.284,1.925,2.82,1.925,4.609
		c0,1.828-0.641,3.374-1.925,4.638c-1.283,1.264-2.82,1.896-4.609,1.896c-1.828,0-3.374-0.632-4.638-1.896
		c-1.263-1.264-1.896-2.81-1.896-4.638c0-1.789,0.633-3.325,1.896-4.609C1136.827,276.205,1138.373,275.563,1140.201,275.563
		L1140.201,275.563z M1133.793,301.699h7.712l-8.291,63.474h-8.006L1133.793,301.699L1133.793,301.699z"/>
	<path fill="#FFFFFF" d="M1213.476,365.173h-8.229l1.255-9.544c-7.334,7.452-15.726,11.177-25.177,11.177
		c-8.599,0-15.668-2.781-21.206-8.342c-5.539-5.562-8.308-12.719-8.308-21.469c0-10.113,3.611-18.796,10.832-26.049
		c7.222-7.254,15.719-10.88,25.491-10.88c5.294,0,9.936,1.106,13.927,3.32c3.99,2.213,7.347,5.668,10.068,10.367l1.468-12.054h8.464
		L1213.476,365.173L1213.476,365.173z M1182.237,359.338c5.231,0,9.996-1.235,14.297-3.707c4.301-2.472,7.711-6.024,10.229-10.656
		c2.518-4.632,3.777-9.672,3.777-15.121c0-6.566-2.072-11.908-6.218-16.026c-4.146-4.119-9.531-6.178-16.156-6.178
		c-7.789,0-14.453,2.82-19.994,8.459c-5.54,5.639-8.31,12.562-8.31,20.769c0,6.728,2.073,12.154,6.218,16.277
		C1170.226,357.277,1175.611,359.338,1182.237,359.338L1182.237,359.338z"/>
</g>
</svg>
