<svg id="Ebene_1" data-name="Ebene 1" xmlns="http://www.w3.org/2000/svg" viewBox="0 0 452.78568 282.51367"><defs><style>.cls-1{fill:#066fb7;}</style></defs><title>logo-2020-ohne-Slogan</title><polygon class="cls-1" points="113.619 242.146 39.286 242.146 39.286 167.755 60.486 167.755 60.486 220.947 113.619 220.947 113.619 242.146"/><polygon class="cls-1" points="411.264 103.844 390.065 103.844 390.065 50.654 336.931 50.654 336.931 29.454 411.264 29.454 411.264 103.844"/><path class="cls-1" d="M174.92566,125.80167c0-16.594-10.56-32.937-32.435-32.937h-39.474v85.485h20.743v-19.359h18.60595c21.874,0,32.56-16.343,32.56-33.189Zm-20.869,0c0,9.303-5.657,14.206-13.954,14.206h-16.343v-28.034h16.343c8.297.125,13.954,4.651,13.954,13.828Z"/><path class="cls-1" d="M366.76166,178.34966l-36.70795-85.485h-23.006l-36.583,85.485h21.874l5.658-13.325h41.234l5.531,13.325Zm-34.697-30.171h-26.903l13.577-31.931,13.326,31.931Z"/><polygon class="cls-1" points="218.41 92.865 218.41 111.972 218.41 178.345 239.277 178.345 239.277 111.972 269.572 111.972 269.572 92.865 218.41 92.865"/><rect class="cls-1" x="188.11478" y="92.86479" width="18.37207" height="19.10693"/></svg>