<?xml version="1.0" encoding="utf-8"?>
<!-- Generator: Adobe Illustrator 24.2.0, SVG Export Plug-In . SVG Version: 6.00 Build 0)  -->
<svg version="1.1" id="Layer_1" xmlns="http://www.w3.org/2000/svg" xmlns:xlink="http://www.w3.org/1999/xlink" x="0px" y="0px"
	 viewBox="0 0 512 512" enable-background="new 0 0 512 512" xml:space="preserve">
<g>
	<path fill-rule="evenodd" clip-rule="evenodd" fill="#EC1C24" d="M255.999,232.344c-20.358,19.237-41.351,38.305-64.404,49.741
		c-9.009,4.494-17.575,7.89-25.81,10.053c-24.695-16.705-47.307-22.694-68.927-16.359c-9.56,2.794-18.922,8.035-28.188,15.785
		C45.629,310.889,23.214,345.938,0,398.846c13.102-52.016,34.451-103.163,53.582-139.684c2.525-4.84,5.025-9.418,7.452-13.711
		c1.324-2.331,2.66-4.606,4.007-6.825c13.237-21.974,27.122-38.506,41.449-49.914C164.828,142.055,208.704,187.648,255.999,232.344z
		"/>
	<path fill-rule="evenodd" clip-rule="evenodd" fill="#EC1C24" d="M512,110c-17.636,53.282-34.451,104.49-53.582,149.158
		l-0.515,1.21c-4.743,10.917-9.597,21.344-14.573,31.191c-23.482,46.602-49.587,80.871-78.23,98.267
		c-39.598,23.791-74.355,9.908-109.101-17.569c18.445-14.575,36.879-33.003,56.033-51.642c11.863-11.52,23.224-21.054,34.181-28.486
		c25.124,6.713,47.16,2.191,68.927-16.359c10.552-8.955,21.055-21.255,31.816-37.152C467.021,209.015,488.003,166.823,512,110z"/>
	<path fill-rule="evenodd" clip-rule="evenodd" fill="#FDCB26" d="M65.042,238.622c-1.348,2.219-2.684,4.494-4.007,6.825
		c-2.427,4.293-4.926,8.871-7.452,13.711C34.451,214.49,17.636,163.277,0,110C23.997,166.823,44.979,209.015,65.042,238.622z"/>
	<path fill-rule="evenodd" clip-rule="evenodd" fill="#FDCB26" d="M446.958,238.622c-10.76,15.897-21.264,28.197-31.816,37.152
		c-21.62-6.334-44.232-0.346-68.927,16.359c-10.957,7.432-22.318,16.962-34.181,28.486c-19.155,18.634-37.588,37.068-56.033,51.642
		c-34.746,27.477-69.503,41.356-109.101,17.569c-28.641-17.396-54.747-51.67-78.23-98.267c9.265-7.745,18.628-12.991,28.188-15.785
		c21.767,18.545,43.802,23.067,68.927,16.359c8.236-2.158,16.803-5.559,25.81-10.053c23.053-11.436,44.047-30.5,64.404-49.741
		c47.295-44.701,91.171-90.289,149.508-43.635C419.835,200.116,433.721,216.648,446.958,238.622z"/>
	<path fill-rule="evenodd" clip-rule="evenodd" fill="#FDCB26" d="M512,398.842c-23.212-52.908-45.629-87.958-68.67-107.283
		c4.976-9.852,9.83-20.274,14.573-31.191l0.515-1.21C477.549,295.679,498.898,346.83,512,398.842z"/>
</g>
</svg>
