<?xml version="1.0" encoding="utf-8"?>
<!-- Generator: Adobe Illustrator 24.2.0, SVG Export Plug-In . SVG Version: 6.00 Build 0)  -->
<svg version="1.1" id="Layer_1" xmlns="http://www.w3.org/2000/svg" xmlns:xlink="http://www.w3.org/1999/xlink" x="0px" y="0px"
	 viewBox="0 0 512 512" enable-background="new 0 0 512 512" xml:space="preserve">
<g>
	<path fill-rule="evenodd" clip-rule="evenodd" fill="#EC1C24" d="M255.999,245.933c-20.358,8.186-41.351,16.3-64.404,21.167
		c-9.009,1.912-17.575,3.357-25.81,4.278c-24.695-7.109-47.307-9.657-68.927-6.961c-9.56,1.189-18.922,3.419-28.188,6.717
		C45.629,279.357,23.214,294.272,0,316.786c13.102-22.135,34.451-43.9,53.582-59.441c2.525-2.059,5.025-4.008,7.452-5.834
		c1.324-0.992,2.66-1.96,4.007-2.904c13.237-9.351,27.122-16.386,41.449-21.24C164.828,207.512,208.704,226.914,255.999,245.933z"/>
	<path fill-rule="evenodd" clip-rule="evenodd" fill="#EC1C24" d="M512,193.872c-17.636,22.673-34.451,44.464-53.582,63.472
		l-0.515,0.515c-4.743,4.646-9.597,9.082-14.573,13.273c-23.482,19.831-49.587,34.414-78.23,41.816
		c-39.598,10.124-74.355,4.216-109.101-7.476c18.445-6.202,36.879-14.044,56.033-21.976c11.863-4.902,23.224-8.959,34.181-12.122
		c25.124,2.857,47.16,0.932,68.927-6.961c10.552-3.811,21.055-9.045,31.816-15.809C467.021,236.006,488.003,218.052,512,193.872z"/>
	<path fill-rule="evenodd" clip-rule="evenodd" fill="#FDCB26" d="M65.042,248.605c-1.348,0.944-2.684,1.912-4.007,2.904
		c-2.427,1.827-4.926,3.775-7.452,5.834C34.451,238.336,17.636,216.543,0,193.872C23.997,218.052,44.979,236.006,65.042,248.605z"/>
	<path fill-rule="evenodd" clip-rule="evenodd" fill="#FDCB26" d="M446.958,248.605c-10.76,6.765-21.264,11.999-31.816,15.809
		c-21.62-2.696-44.232-0.147-68.927,6.961c-10.957,3.163-22.318,7.218-34.181,12.122c-19.155,7.93-37.588,15.774-56.033,21.976
		c-34.746,11.693-69.503,17.598-109.101,7.476c-28.641-7.403-54.747-21.988-78.23-41.816c9.265-3.296,18.628-5.528,28.188-6.717
		c21.767,7.892,43.802,9.816,68.927,6.961c8.236-0.918,16.803-2.366,25.81-4.278c23.053-4.866,44.047-12.979,64.404-21.167
		c47.295-19.022,91.171-38.421,149.508-18.568C419.835,232.219,433.721,239.254,446.958,248.605z"/>
	<path fill-rule="evenodd" clip-rule="evenodd" fill="#FDCB26" d="M512,316.784c-23.212-22.514-45.629-37.429-68.67-45.653
		c4.976-4.192,9.83-8.627,14.573-13.273l0.515-0.515C477.549,272.885,498.898,294.652,512,316.784z"/>
</g>
</svg>
