<?xml version="1.0" encoding="utf-8"?>
<!-- Generator: Adobe Illustrator 24.2.0, SVG Export Plug-In . SVG Version: 6.00 Build 0)  -->
<svg version="1.1" id="Layer_1" xmlns="http://www.w3.org/2000/svg" xmlns:xlink="http://www.w3.org/1999/xlink" x="0px" y="0px"
	 viewBox="0 0 512 220" enable-background="new 0 0 512 220" xml:space="preserve">
<g>
	<path fill="#333333" d="M56.096,121.265c1.603,1.949,3.12,3.811,4.553,5.585c1.431,1.777,2.892,3.637,4.381,5.584
		c-3.208,2.522-6.816,4.527-10.825,6.014c-4.012,1.488-8.363,2.234-13.059,2.234c-5.271,0-10.224-1.004-14.863-3.007
		c-4.64-2.003-8.678-4.725-12.115-8.162c-3.436-3.436-6.159-7.445-8.162-12.029C4.001,112.906,3,108.035,3,102.88
		c0-5.155,1.001-10.022,3.007-14.605c2.003-4.58,4.725-8.562,8.162-11.942c3.437-3.378,7.475-6.071,12.115-8.077
		c4.639-2.003,9.592-3.006,14.863-3.006c4.811,0,9.249,0.746,13.316,2.233c4.065,1.49,7.759,3.496,11.084,6.014l-9.451,11.169
		c-1.949-1.603-4.183-2.835-6.702-3.694c-2.521-0.859-5.27-1.289-8.248-1.289c-3.437,0-6.589,0.602-9.451,1.804
		c-2.865,1.203-5.356,2.835-7.475,4.897c-2.121,2.062-3.754,4.497-4.897,7.303c-1.147,2.809-1.718,5.872-1.718,9.193
		c0,3.324,0.572,6.388,1.718,9.194c1.144,2.808,2.776,5.27,4.897,7.389c2.118,2.121,4.61,3.78,7.475,4.983
		c2.862,1.204,6.014,1.805,9.451,1.805c2.978,0,5.727-0.429,8.248-1.289C51.913,124.101,54.147,122.871,56.096,121.265z"/>
	<path fill="#333333" d="M71.902,102.88c0-5.155,1.001-10.022,3.007-14.605c2.003-4.58,4.725-8.562,8.162-11.942
		c3.437-3.378,7.475-6.071,12.115-8.077c4.639-2.003,9.649-3.006,15.035-3.006c5.383,0,10.395,1.004,15.035,3.006
		c4.64,2.006,8.648,4.699,12.029,8.077c3.377,3.38,6.014,7.362,7.904,11.942c1.89,4.583,2.835,9.451,2.835,14.605
		c0,5.155-0.945,10.026-2.835,14.605c-1.89,4.584-4.527,8.592-7.904,12.029c-3.381,3.436-7.389,6.159-12.029,8.162
		c-4.639,2.003-9.708,3.007-15.207,3.007c-5.271,0-10.224-0.918-14.863-2.749c-4.64-1.832-8.678-4.409-12.115-7.733
		c-3.436-3.322-6.159-7.303-8.162-11.942C72.903,113.619,71.902,108.494,71.902,102.88z M86.508,103.052
		c0,3.209,0.601,6.216,1.804,9.022c1.203,2.808,2.862,5.27,4.983,7.389c2.118,2.121,4.58,3.78,7.389,4.983
		c2.806,1.204,5.813,1.805,9.021,1.805c3.206,0,6.243-0.601,9.107-1.805c2.862-1.202,5.354-2.861,7.475-4.983
		c2.118-2.118,3.808-4.581,5.069-7.389c1.259-2.806,1.89-5.813,1.89-9.022c0-3.206-0.631-6.242-1.89-9.107
		c-1.262-2.862-2.951-5.354-5.069-7.475c-2.121-2.118-4.613-3.78-7.475-4.983c-2.864-1.202-5.901-1.804-9.107-1.804
		c-3.208,0-6.215,0.602-9.021,1.804c-2.809,1.203-5.271,2.865-7.389,4.983c-2.121,2.121-3.78,4.613-4.983,7.475
		C87.109,96.81,86.508,99.846,86.508,103.052z"/>
	<path fill="#333333" d="M163.659,67.139h12.887c0.228,3.552,0.43,6.787,0.602,9.708c0.171,2.921,0.37,5.816,0.601,8.678
		c2.634-6.186,6.384-11.11,11.255-14.777c4.868-3.665,10.853-5.499,17.957-5.499c7.217,0,13,2.005,17.355,6.014
		c4.353,4.012,6.643,9.166,6.874,15.465v52.237h-14.777V93.429c-0.231-3.665-1.491-6.788-3.78-9.366
		c-2.293-2.577-5.902-3.978-10.826-4.21c-3.436,0-6.588,0.601-9.451,1.804c-2.864,1.203-5.327,2.835-7.389,4.897
		c-2.061,2.062-3.694,4.527-4.897,7.389c-1.203,2.865-1.805,6.014-1.805,9.451v35.569h-14.605V67.139z"/>
</g>
<g>
	<path fill="#777777" d="M252.837,72.466h4.983c0,0.459,0.027,1.546,0.086,3.264c0.056,1.719,0.086,3.552,0.086,5.499
		c0,1.949,0.027,3.753,0.086,5.413c0.056,1.662,0.086,2.663,0.086,3.007c2.405-5.499,6.126-9.967,11.168-13.403
		c5.04-3.437,10.881-5.155,17.527-5.155c6.415,0,11.484,1.834,15.207,5.499c3.723,3.668,5.698,8.42,5.928,14.262v48.113h-6.013
		V91.883c-0.231-4.009-1.662-7.445-4.296-10.31c-2.636-2.862-6.474-4.408-11.511-4.639c-3.78,0-7.332,0.631-10.655,1.89
		c-3.324,1.262-6.215,2.98-8.678,5.155c-2.465,2.177-4.441,4.811-5.928,7.904c-1.491,3.093-2.234,6.417-2.234,9.967v37.115h-5.842
		V72.466z"/>
	<path fill="#777777" d="M384.973,130.888c-3.092,2.866-6.731,5.129-10.912,6.788c-4.182,1.659-8.621,2.491-13.316,2.491
		c-4.812,0-9.338-0.918-13.575-2.749c-4.24-1.831-7.933-4.296-11.084-7.389c-3.15-3.094-5.613-6.728-7.387-10.912
		c-1.777-4.181-2.665-8.678-2.665-13.488c0-4.811,0.916-9.336,2.75-13.575c1.831-4.237,4.296-7.931,7.389-11.083
		c3.092-3.15,6.728-5.641,10.91-7.475c4.182-1.831,8.679-2.749,13.49-2.749c7.329,0,13.601,2.147,18.816,6.444
		c5.211,4.295,9.077,9.767,11.598,16.41c-4.124,1.605-8.592,3.381-13.403,5.327c-4.811,1.949-9.738,3.952-14.777,6.014
		c-5.042,2.062-10.025,4.098-14.949,6.1c-4.928,2.006-9.566,3.867-13.919,5.585c2.175,5.27,5.642,9.536,10.396,12.802
		c4.751,3.264,10.165,4.896,16.238,4.896c3.893,0,7.561-0.686,10.997-2.061c3.436-1.376,6.415-3.266,8.935-5.67L384.973,130.888z
		 M383.427,91.883c-2.062-4.58-5.069-8.248-9.022-10.997c-3.952-2.749-8.565-4.124-13.832-4.124c-4.01,0-7.762,0.773-11.256,2.32
		c-3.494,1.546-6.529,3.608-9.107,6.186c-2.577,2.577-4.613,5.614-6.1,9.107c-1.49,3.496-2.233,7.191-2.233,11.084
		c0,1.262,0.085,2.465,0.257,3.608c0.171,1.147,0.37,2.293,0.601,3.436c3.893-1.603,8.017-3.291,12.373-5.069
		c4.351-1.775,8.733-3.55,13.144-5.327c4.407-1.775,8.763-3.522,13.059-5.241C375.609,95.148,379.647,93.488,383.427,91.883z"/>
	<path fill="#777777" d="M454.391,128.139c0.688,0.686,1.345,1.403,1.977,2.147c0.629,0.747,1.23,1.52,1.803,2.319
		c-2.98,2.293-6.301,4.124-9.965,5.499c-3.668,1.376-7.62,2.062-11.857,2.062c-4.811,0-9.338-0.918-13.575-2.749
		c-4.24-1.831-7.933-4.296-11.082-7.389c-3.153-3.094-5.614-6.728-7.389-10.912c-1.777-4.181-2.665-8.678-2.665-13.488
		c0-4.811,0.887-9.336,2.665-13.575c1.775-4.237,4.236-7.905,7.389-10.997c3.149-3.093,6.842-5.555,11.082-7.389
		c4.237-1.832,8.764-2.75,13.575-2.75c4.237,0,8.218,0.688,11.942,2.062c3.721,1.375,7.072,3.209,10.052,5.499
		c-0.574,0.803-1.202,1.547-1.89,2.234c-0.686,0.687-1.374,1.49-2.062,2.405c-2.405-1.947-5.155-3.493-8.247-4.639
		c-3.094-1.144-6.358-1.718-9.795-1.718c-4.124,0-7.933,0.746-11.426,2.234c-3.497,1.49-6.53,3.522-9.108,6.1
		c-2.577,2.578-4.613,5.644-6.1,9.194c-1.49,3.552-2.234,7.332-2.234,11.341c0,4.011,0.744,7.762,2.234,11.254
		c1.487,3.496,3.523,6.53,6.1,9.107c2.578,2.578,5.611,4.613,9.108,6.101c3.493,1.49,7.302,2.233,11.426,2.233
		c3.436,0,6.701-0.542,9.795-1.632C449.236,131.605,451.986,130.089,454.391,128.139z"/>
	<path fill="#777777" d="M481.023,43.254h6.014v30.243H508v5.327h-20.962v60.141h-6.014V78.823h-14.605v-5.327h14.605V43.254z"/>
</g>
<g>
	<path fill="#777777" d="M28.707,31.692c0,1.436-0.265,2.788-0.795,4.052c-0.531,1.266-1.256,2.36-2.18,3.283
		c-0.923,0.923-2.018,1.65-3.282,2.179c-1.266,0.53-2.634,0.795-4.103,0.795c-2.018,0-3.814-0.52-5.386-1.564
		c-1.573-1.043-2.685-2.334-3.334-3.873c0,0.445,0.008,0.881,0.025,1.308c0.017,0.428,0.026,0.864,0.026,1.308v12.003H7.883v-29.39
		h1.744c0,0.069,0,0.29,0,0.666c0,0.377,0.008,0.821,0.025,1.334c0.017,0.513,0.026,1.052,0.026,1.616c0,0.565,0,1.052,0,1.462
		c0.341-0.751,0.795-1.47,1.359-2.155c0.564-0.684,1.222-1.273,1.975-1.769c0.751-0.496,1.59-0.889,2.513-1.181
		c0.923-0.29,1.898-0.436,2.924-0.436c1.436,0,2.777,0.266,4.026,0.796c1.248,0.53,2.334,1.256,3.257,2.179
		c0.923,0.923,1.649,2.019,2.18,3.283C28.442,28.854,28.707,30.223,28.707,31.692z M26.809,31.692c0-1.197-0.214-2.325-0.641-3.384
		c-0.428-1.061-1.026-1.975-1.795-2.744c-0.77-0.77-1.668-1.377-2.693-1.821c-1.026-0.445-2.155-0.668-3.385-0.668
		c-1.198,0-2.326,0.223-3.386,0.668c-1.06,0.444-1.975,1.051-2.743,1.821c-0.77,0.769-1.377,1.684-1.821,2.744
		c-0.445,1.059-0.667,2.188-0.667,3.384c0,1.198,0.222,2.318,0.667,3.36c0.444,1.043,1.051,1.949,1.821,2.718
		c0.769,0.77,1.684,1.377,2.743,1.821c1.06,0.445,2.188,0.668,3.386,0.668c1.23,0,2.359-0.223,3.385-0.668
		c1.025-0.444,1.923-1.051,2.693-1.821c0.769-0.769,1.367-1.675,1.795-2.718C26.595,34.01,26.809,32.89,26.809,31.692z"/>
	<path fill="#777777" d="M32.81,31.692c0-1.436,0.274-2.786,0.821-4.052c0.547-1.264,1.29-2.367,2.231-3.308
		c0.94-0.941,2.043-1.684,3.309-2.231c1.264-0.546,2.616-0.821,4.052-0.821s2.787,0.275,4.052,0.821
		c1.264,0.548,2.367,1.29,3.309,2.231c0.94,0.941,1.684,2.043,2.231,3.308c0.546,1.266,0.82,2.616,0.82,4.052
		c0,1.436-0.274,2.779-0.82,4.026c-0.548,1.25-1.291,2.334-2.231,3.257c-0.941,0.923-2.044,1.659-3.309,2.207
		c-1.265,0.546-2.634,0.819-4.103,0.819c-1.436,0-2.788-0.264-4.052-0.795c-1.265-0.529-2.359-1.256-3.282-2.179
		c-0.923-0.923-1.659-2.009-2.206-3.257C33.084,34.522,32.81,33.163,32.81,31.692z M34.605,31.692c0,1.198,0.222,2.318,0.667,3.36
		c0.444,1.043,1.051,1.949,1.821,2.718c0.77,0.77,1.675,1.377,2.718,1.821c1.043,0.445,2.163,0.668,3.36,0.668
		c1.197,0,2.316-0.223,3.36-0.668c1.043-0.444,1.957-1.051,2.743-1.821c0.787-0.769,1.402-1.675,1.847-2.718
		c0.444-1.042,0.667-2.162,0.667-3.36c0-1.197-0.223-2.316-0.667-3.36c-0.445-1.042-1.06-1.957-1.847-2.744
		c-0.787-0.786-1.701-1.402-2.743-1.845c-1.044-0.445-2.163-0.668-3.36-0.668c-1.197,0-2.317,0.223-3.36,0.668
		c-1.043,0.444-1.949,1.059-2.718,1.845c-0.77,0.788-1.377,1.702-1.821,2.744C34.827,29.376,34.605,30.496,34.605,31.692z"/>
	<path fill="#777777" d="M70.2,26.769l-2.205-4.975h1.59c1.573,3.488,2.983,6.65,4.232,9.488c1.248,2.84,2.418,5.54,3.514,8.104
		c0.546-1.402,1.119-2.786,1.718-4.155c0.598-1.367,1.205-2.76,1.821-4.179c0.616-1.419,1.264-2.89,1.949-4.412
		c0.684-1.522,1.402-3.137,2.155-4.847h1.795c-1.608,3.522-3.197,7.052-4.77,10.591c-1.573,3.539-3.129,7.036-4.667,10.49
		c-1.095-2.428-2.138-4.822-3.129-7.181c-0.992-2.36-2.035-4.753-3.129-7.181l-5.949,14.361l-9.284-21.081h1.795
		c0.752,1.71,1.462,3.325,2.129,4.847c0.667,1.522,1.299,2.993,1.898,4.412c0.598,1.419,1.18,2.812,1.743,4.179
		c0.564,1.368,1.137,2.753,1.719,4.155c0.717-1.812,1.47-3.71,2.256-5.694C68.166,31.71,69.106,29.402,70.2,26.769z"/>
	<path fill="#777777" d="M106.464,39.233c-0.923,0.855-2.009,1.53-3.257,2.026c-1.249,0.496-2.573,0.743-3.975,0.743
		c-1.436,0-2.788-0.273-4.052-0.819c-1.265-0.548-2.368-1.283-3.309-2.207c-0.941-0.923-1.676-2.007-2.205-3.257
		c-0.53-1.247-0.795-2.59-0.795-4.026c0-1.436,0.273-2.786,0.82-4.052c0.547-1.264,1.283-2.367,2.206-3.308
		c0.923-0.941,2.008-1.684,3.256-2.231c1.248-0.546,2.59-0.821,4.027-0.821c2.188,0,4.06,0.642,5.616,1.923
		c1.556,1.282,2.71,2.916,3.462,4.899c-1.231,0.478-2.565,1.009-4.001,1.59c-1.436,0.582-2.907,1.179-4.411,1.795
		c-1.505,0.616-2.993,1.224-4.462,1.821c-1.47,0.6-2.855,1.155-4.155,1.668c0.649,1.572,1.684,2.847,3.103,3.821
		c1.418,0.974,3.034,1.462,4.847,1.462c1.162,0,2.256-0.205,3.282-0.616c1.026-0.41,1.915-0.975,2.668-1.694L106.464,39.233z
		 M106.002,27.59c-0.616-1.367-1.513-2.462-2.693-3.283c-1.179-0.821-2.556-1.231-4.129-1.231c-1.197,0-2.317,0.231-3.36,0.692
		c-1.043,0.462-1.949,1.078-2.718,1.847c-0.77,0.77-1.377,1.676-1.821,2.718c-0.445,1.043-0.667,2.147-0.667,3.309
		c0,0.376,0.026,0.736,0.077,1.077c0.051,0.342,0.111,0.685,0.179,1.026c1.162-0.478,2.393-0.983,3.693-1.513
		c1.299-0.53,2.607-1.059,3.924-1.59c1.316-0.53,2.616-1.052,3.898-1.565C103.668,28.564,104.874,28.068,106.002,27.59z"/>
	<path fill="#777777" d="M122.876,23.486c-1.061,0.035-2.077,0.223-3.052,0.565c-0.975,0.341-1.839,0.829-2.59,1.461
		c-0.752,0.633-1.351,1.386-1.795,2.257c-0.445,0.871-0.667,1.838-0.667,2.897v10.977h-1.744v-19.85h1.488
		c0,0.137,0.008,0.461,0.025,0.974s0.026,1.061,0.026,1.642c0,0.582,0.008,1.12,0.025,1.616s0.026,0.795,0.026,0.897
		c0.786-1.71,1.975-3.052,3.564-4.026c1.59-0.974,3.257-1.478,5.001-1.513L122.876,23.486z"/>
	<path fill="#777777" d="M141.854,39.233c-0.923,0.855-2.009,1.53-3.257,2.026c-1.249,0.496-2.573,0.743-3.975,0.743
		c-1.436,0-2.788-0.273-4.052-0.819c-1.265-0.548-2.368-1.283-3.309-2.207c-0.941-0.923-1.676-2.007-2.205-3.257
		c-0.53-1.247-0.795-2.59-0.795-4.026c0-1.436,0.273-2.786,0.82-4.052c0.547-1.264,1.283-2.367,2.206-3.308s2.008-1.684,3.256-2.231
		c1.248-0.546,2.59-0.821,4.027-0.821c2.188,0,4.06,0.642,5.616,1.923c1.556,1.282,2.71,2.916,3.462,4.899
		c-1.231,0.478-2.565,1.009-4.001,1.59c-1.436,0.582-2.907,1.179-4.411,1.795c-1.505,0.616-2.993,1.224-4.462,1.821
		c-1.47,0.6-2.855,1.155-4.155,1.668c0.649,1.572,1.684,2.847,3.103,3.821c1.418,0.974,3.034,1.462,4.847,1.462
		c1.162,0,2.256-0.205,3.283-0.616c1.026-0.41,1.915-0.975,2.668-1.694L141.854,39.233z M141.392,27.59
		c-0.616-1.367-1.513-2.462-2.693-3.283c-1.179-0.821-2.556-1.231-4.129-1.231c-1.197,0-2.317,0.231-3.36,0.692
		c-1.043,0.462-1.949,1.078-2.718,1.847c-0.77,0.77-1.377,1.676-1.821,2.718c-0.445,1.043-0.667,2.147-0.667,3.309
		c0,0.376,0.026,0.736,0.077,1.077c0.051,0.342,0.111,0.685,0.179,1.026c1.162-0.478,2.393-0.983,3.693-1.513
		c1.299-0.53,2.607-1.059,3.924-1.59c1.316-0.53,2.616-1.052,3.898-1.565C139.058,28.564,140.264,28.068,141.392,27.59z"/>
	<path fill="#777777" d="M146.88,31.692c0-1.47,0.265-2.838,0.796-4.103c0.53-1.264,1.264-2.36,2.205-3.283
		c0.94-0.923,2.034-1.649,3.283-2.179c1.248-0.53,2.59-0.796,4.027-0.796c1.059,0,2.051,0.146,2.975,0.436
		c0.923,0.292,1.752,0.692,2.488,1.205c0.735,0.513,1.385,1.103,1.949,1.77c0.564,0.666,1,1.377,1.308,2.129V2.765h1.795v38.878
		h-1.795v-2.41c0-0.478,0.017-0.941,0.051-1.386c0.033-0.444,0.051-0.889,0.051-1.332c-0.718,1.538-1.847,2.838-3.385,3.897
		c-1.539,1.061-3.368,1.59-5.488,1.59c-1.47,0-2.83-0.273-4.078-0.819c-1.249-0.548-2.333-1.283-3.256-2.207
		s-1.642-2.007-2.155-3.257C147.136,34.471,146.88,33.129,146.88,31.692z M148.675,31.692c0,1.198,0.222,2.318,0.667,3.36
		c0.444,1.043,1.051,1.949,1.821,2.718c0.77,0.77,1.684,1.377,2.744,1.821c1.059,0.445,2.188,0.668,3.385,0.668
		c1.197,0,2.325-0.223,3.385-0.668c1.059-0.444,1.975-1.051,2.744-1.821c0.77-0.769,1.376-1.675,1.821-2.718
		c0.444-1.042,0.667-2.162,0.667-3.36c0-1.197-0.223-2.325-0.667-3.384c-0.445-1.061-1.051-1.975-1.821-2.744
		c-0.77-0.77-1.685-1.377-2.744-1.821c-1.06-0.445-2.189-0.668-3.385-0.668c-1.197,0-2.326,0.223-3.385,0.668
		c-1.061,0.444-1.975,1.051-2.744,1.821c-0.77,0.769-1.377,1.684-1.821,2.744C148.897,29.367,148.675,30.496,148.675,31.692z"/>
	<path fill="#777777" d="M208.634,31.692c0,1.436-0.265,2.788-0.795,4.052c-0.531,1.266-1.257,2.36-2.18,3.283
		s-2.018,1.65-3.282,2.179c-1.266,0.53-2.634,0.795-4.103,0.795c-2.018,0-3.814-0.52-5.386-1.564
		c-1.573-1.043-2.685-2.334-3.334-3.873c0,0.445,0.008,0.881,0.025,1.308c0.017,0.428,0.026,0.864,0.026,1.308v2.462h-1.796V2.765
		h1.796v24.107c0.341-0.751,0.795-1.47,1.359-2.155c0.564-0.684,1.222-1.273,1.975-1.769c0.751-0.496,1.59-0.889,2.513-1.181
		c0.923-0.29,1.898-0.436,2.924-0.436c1.436,0,2.777,0.266,4.026,0.796c1.248,0.53,2.334,1.256,3.257,2.179
		c0.923,0.923,1.649,2.019,2.18,3.283C208.368,28.854,208.634,30.223,208.634,31.692z M206.736,31.692
		c0-1.197-0.214-2.325-0.641-3.384c-0.428-1.061-1.026-1.975-1.795-2.744c-0.77-0.77-1.668-1.377-2.693-1.821
		c-1.026-0.445-2.155-0.668-3.385-0.668c-1.198,0-2.326,0.223-3.386,0.668c-1.06,0.444-1.975,1.051-2.743,1.821
		c-0.77,0.769-1.377,1.684-1.821,2.744c-0.445,1.059-0.667,2.188-0.667,3.384c0,1.198,0.222,2.318,0.667,3.36
		c0.444,1.043,1.051,1.949,1.821,2.718c0.769,0.77,1.684,1.377,2.743,1.821c1.06,0.445,2.188,0.668,3.386,0.668
		c1.23,0,2.359-0.223,3.385-0.668c1.025-0.444,1.923-1.051,2.693-1.821c0.769-0.769,1.367-1.675,1.795-2.718
		C206.522,34.01,206.736,32.89,206.736,31.692z"/>
	<path fill="#777777" d="M217.507,51.183h-1.949c0.41-0.855,0.769-1.65,1.077-2.386c0.308-0.736,0.607-1.478,0.898-2.231
		c0.29-0.751,0.606-1.548,0.949-2.384c0.341-0.838,0.751-1.821,1.231-2.949c-1.574-3.181-3.044-6.412-4.411-9.694
		c-1.368-3.283-2.855-6.532-4.462-9.746h1.897c0.923,1.812,1.744,3.513,2.462,5.104c0.718,1.59,1.384,3.12,2,4.59
		c0.616,1.471,1.214,2.89,1.796,4.257c0.581,1.368,1.18,2.718,1.795,4.052c0.616-1.334,1.214-2.684,1.796-4.052
		c0.581-1.367,1.18-2.777,1.795-4.231c0.616-1.452,1.274-2.983,1.975-4.591c0.7-1.607,1.513-3.316,2.436-5.129h1.949L217.507,51.183
		z"/>
</g>
<g>
	<path fill-rule="evenodd" clip-rule="evenodd" fill="#777777" d="M375.713,179.253c-10.241,4.118-20.802,8.2-32.399,10.648
		c-4.532,0.962-8.841,1.689-12.984,2.152c-12.423-3.576-23.798-4.858-34.674-3.502c-4.809,0.598-9.519,1.72-14.18,3.379
		c-11.591,4.137-22.867,11.64-34.545,22.966c6.591-11.135,17.331-22.084,26.955-29.902c1.27-1.036,2.528-2.016,3.749-2.935
		c0.666-0.499,1.338-0.986,2.016-1.461c6.659-4.704,13.644-8.243,20.851-10.685C329.849,159.925,351.921,169.685,375.713,179.253z"
		/>
	<path fill-rule="evenodd" clip-rule="evenodd" fill="#777777" d="M504.496,153.063c-8.872,11.406-17.331,22.368-26.955,31.93
		l-0.259,0.259c-2.386,2.337-4.828,4.569-7.331,6.677c-11.813,9.976-24.945,17.312-39.354,21.036
		c-19.92,5.093-37.405,2.121-54.884-3.761c9.279-3.12,18.552-7.065,28.188-11.055c5.968-2.466,11.683-4.507,17.195-6.098
		c12.639,1.437,23.724,0.469,34.674-3.502c5.308-1.917,10.592-4.55,16.005-7.953C481.869,174.259,492.424,165.227,504.496,153.063z"
		/>
	<path fill-rule="evenodd" clip-rule="evenodd" fill="#333333" d="M279.651,180.597c-0.678,0.475-1.35,0.962-2.016,1.461
		c-1.221,0.919-2.478,1.899-3.749,2.935c-9.624-9.562-18.083-20.525-26.955-31.93C259.003,165.227,269.558,174.259,279.651,180.597z
		"/>
	<path fill-rule="evenodd" clip-rule="evenodd" fill="#333333" d="M471.776,180.597c-5.413,3.403-10.697,6.036-16.005,7.953
		c-10.876-1.356-22.251-0.074-34.674,3.502c-5.512,1.591-11.227,3.631-17.195,6.098c-9.636,3.989-18.909,7.935-28.188,11.055
		c-17.479,5.882-34.964,8.853-54.884,3.761c-14.408-3.724-27.541-11.061-39.354-21.036c4.661-1.658,9.371-2.781,14.18-3.379
		c10.95,3.97,22.035,4.938,34.674,3.502c4.143-0.462,8.453-1.19,12.984-2.152c11.597-2.448,22.158-6.529,32.399-10.648
		c23.792-9.569,45.864-19.328,75.211-9.341C458.132,172.354,465.117,175.893,471.776,180.597z"/>
	<path fill-rule="evenodd" clip-rule="evenodd" fill="#333333" d="M504.496,214.895c-11.677-11.326-22.954-18.829-34.545-22.966
		c2.503-2.109,4.945-4.34,7.331-6.677l0.259-0.259C487.165,192.811,497.905,203.761,504.496,214.895z"/>
</g>
</svg>
